<svg id="component4" width="85" height="42" viewBox="0 0 85 42" fill="none" xmlns="http://www.w3.org/2000/svg">
<path d="M13.1462 13.1028H13.1433C10.7453 13.1028 8.80127 14.8304 8.80127 16.9615V16.964C8.80127 19.0951 10.7453 20.8227 13.1433 20.8227H13.1462C15.5442 20.8227 17.4882 19.0951 17.4882 16.964V16.9615C17.4882 14.8304 15.5442 13.1028 13.1462 13.1028Z" fill="#AFB1B8"/>
<path d="M45.195 11.8693C45.1882 8.90929 43.8623 6.07223 41.5074 3.97895C39.1525 1.88568 35.9605 0.706672 32.6298 0.699951V0.699951C29.2981 0.705328 26.1045 1.88374 23.7484 3.97716C21.3923 6.07058 20.0656 8.90841 20.0587 11.8693V28.1921C20.0587 28.1921 45.1922 25.7044 45.195 11.8718V11.8693Z" fill="#AFB1B8"/>
<path d="M1.52588e-05 33.5495C0.00605624 35.6091 0.929165 37.5828 2.56763 39.0394C4.20609 40.496 6.42669 41.317 8.7442 41.3231C11.0612 41.317 13.2814 40.4963 14.9198 39.0403C16.5581 37.5843 17.4816 35.6112 17.4884 33.552V22.1943C17.4884 22.1943 1.52588e-05 23.9266 1.52588e-05 33.5495ZM8.7442 35.5844C8.29132 35.5844 7.84861 35.4651 7.47205 35.2415C7.09549 35.0179 6.802 34.7001 6.6287 34.3282C6.45539 33.9564 6.41004 33.5472 6.49839 33.1525C6.58674 32.7577 6.80483 32.3951 7.12506 32.1105C7.4453 31.8259 7.8533 31.6321 8.29748 31.5536C8.74166 31.4751 9.20206 31.5154 9.62047 31.6694C10.0389 31.8234 10.3965 32.0843 10.6481 32.4189C10.8997 32.7535 11.034 33.147 11.034 33.5495C11.0351 33.8173 10.9767 34.0828 10.8622 34.3306C10.7476 34.5783 10.5791 34.8036 10.3664 34.9933C10.1536 35.1831 9.90083 35.3337 9.62245 35.4364C9.34408 35.5392 9.04562 35.5921 8.7442 35.5921V35.5844Z" fill="#AFB1B8"/>
<path d="M24.7302 31.9412V36.2068H23.8513V31.9412H24.7302ZM26.4294 33.7634V34.449H24.49V33.7634H26.4294ZM26.6345 31.9412V32.6296H24.49V31.9412H26.6345ZM30.6482 33.9744V34.1765C30.6482 34.5007 30.6042 34.7917 30.5163 35.0496C30.4284 35.3074 30.3044 35.5271 30.1443 35.7087C29.9841 35.8884 29.7927 36.0261 29.57 36.1218C29.3493 36.2175 29.1042 36.2654 28.8347 36.2654C28.5671 36.2654 28.322 36.2175 28.0993 36.1218C27.8786 36.0261 27.6872 35.8884 27.5251 35.7087C27.363 35.5271 27.237 35.3074 27.1472 35.0496C27.0593 34.7917 27.0154 34.5007 27.0154 34.1765V33.9744C27.0154 33.6482 27.0593 33.3572 27.1472 33.1013C27.2351 32.8435 27.3591 32.6238 27.5193 32.4421C27.6814 32.2605 27.8728 32.1218 28.0935 32.0261C28.3161 31.9304 28.5612 31.8826 28.8288 31.8826C29.0984 31.8826 29.3435 31.9304 29.5642 32.0261C29.7868 32.1218 29.9782 32.2605 30.1384 32.4421C30.3005 32.6238 30.4255 32.8435 30.5134 33.1013C30.6032 33.3572 30.6482 33.6482 30.6482 33.9744ZM29.7605 34.1765V33.9685C29.7605 33.7419 29.74 33.5427 29.6989 33.3708C29.6579 33.199 29.5974 33.0544 29.5173 32.9373C29.4372 32.8201 29.3396 32.7322 29.2243 32.6736C29.1091 32.613 28.9773 32.5828 28.8288 32.5828C28.6804 32.5828 28.5486 32.613 28.4333 32.6736C28.32 32.7322 28.2234 32.8201 28.1433 32.9373C28.0652 33.0544 28.0056 33.199 27.9646 33.3708C27.9236 33.5427 27.903 33.7419 27.903 33.9685V34.1765C27.903 34.4011 27.9236 34.6003 27.9646 34.7742C28.0056 34.946 28.0661 35.0916 28.1462 35.2107C28.2263 35.3279 28.3239 35.4167 28.4392 35.4773C28.5544 35.5378 28.6862 35.5681 28.8347 35.5681C28.9831 35.5681 29.115 35.5378 29.2302 35.4773C29.3454 35.4167 29.4421 35.3279 29.5202 35.2107C29.5984 35.0916 29.6579 34.946 29.6989 34.7742C29.74 34.6003 29.7605 34.4011 29.7605 34.1765ZM33.5017 35.0906C33.5017 35.0144 33.49 34.946 33.4665 34.8855C33.445 34.823 33.404 34.7664 33.3435 34.7156C33.2829 34.6628 33.198 34.6111 33.0886 34.5603C32.9792 34.5095 32.8376 34.4568 32.6638 34.4021C32.4704 34.3396 32.2868 34.2693 32.113 34.1912C31.9411 34.113 31.7888 34.0222 31.656 33.9187C31.5251 33.8132 31.4216 33.6912 31.3454 33.5525C31.2712 33.4138 31.2341 33.2527 31.2341 33.0691C31.2341 32.8914 31.2732 32.7302 31.3513 32.5857C31.4294 32.4392 31.5388 32.3142 31.6794 32.2107C31.82 32.1052 31.9861 32.0242 32.1775 31.9675C32.3708 31.9109 32.5827 31.8826 32.8132 31.8826C33.1277 31.8826 33.4021 31.9392 33.6364 32.0525C33.8708 32.1658 34.0525 32.321 34.1814 32.5183C34.3122 32.7156 34.3777 32.9412 34.3777 33.1951H33.5046C33.5046 33.0701 33.4782 32.9607 33.4255 32.8669C33.3747 32.7712 33.2966 32.696 33.1911 32.6414C33.0876 32.5867 32.9568 32.5593 32.7986 32.5593C32.6462 32.5593 32.5193 32.5828 32.4177 32.6296C32.3161 32.6746 32.24 32.7361 32.1892 32.8142C32.1384 32.8904 32.113 32.9763 32.113 33.072C32.113 33.1443 32.1306 33.2097 32.1657 33.2683C32.2029 33.3269 32.2575 33.3816 32.3298 33.4324C32.4021 33.4832 32.4909 33.531 32.5964 33.5759C32.7019 33.6208 32.8239 33.6648 32.9626 33.7078C33.195 33.7781 33.3991 33.8572 33.5749 33.9451C33.7527 34.033 33.9011 34.1316 34.0202 34.241C34.1394 34.3503 34.2292 34.4744 34.2898 34.613C34.3503 34.7517 34.3806 34.9089 34.3806 35.0847C34.3806 35.2703 34.3445 35.4363 34.2722 35.5828C34.1999 35.7292 34.0954 35.8533 33.9587 35.9548C33.822 36.0564 33.6589 36.1335 33.4695 36.1863C33.28 36.239 33.0681 36.2654 32.8337 36.2654C32.6228 36.2654 32.4148 36.238 32.2097 36.1833C32.0046 36.1267 31.8181 36.0417 31.6501 35.9285C31.4841 35.8152 31.3513 35.6707 31.2517 35.4949C31.1521 35.3191 31.1023 35.1111 31.1023 34.8708H31.9841C31.9841 35.0037 32.0046 35.116 32.0456 35.2078C32.0866 35.2996 32.1443 35.3738 32.2185 35.4304C32.2946 35.4871 32.3845 35.5281 32.488 35.5535C32.5935 35.5789 32.7087 35.5916 32.8337 35.5916C32.9861 35.5916 33.1111 35.5701 33.2087 35.5271C33.3083 35.4841 33.3816 35.4246 33.4284 35.3484C33.4773 35.2722 33.5017 35.1863 33.5017 35.0906ZM36.8855 31.9412V36.2068H36.0095V31.9412H36.8855ZM38.198 31.9412V32.6296H34.7175V31.9412H38.198ZM41.5612 35.5212V36.2068H39.2907V35.5212H41.5612ZM39.5779 31.9412V36.2068H38.6989V31.9412H39.5779ZM41.2654 33.6785V34.3464H39.2907V33.6785H41.2654ZM41.5583 31.9412V32.6296H39.2907V31.9412H41.5583ZM42.0739 31.9412H43.6648C43.9909 31.9412 44.2712 31.99 44.5056 32.0876C44.7419 32.1853 44.9236 32.3298 45.0505 32.5212C45.1775 32.7126 45.2409 32.948 45.2409 33.2273C45.2409 33.4558 45.2019 33.6521 45.1237 33.8162C45.0476 33.9783 44.9392 34.114 44.7986 34.2234C44.6599 34.3308 44.4968 34.4167 44.3093 34.4812L44.031 34.6277H42.6482L42.6423 33.9421H43.6706C43.8249 33.9421 43.9529 33.9148 44.0544 33.8601C44.156 33.8054 44.2321 33.7292 44.2829 33.6316C44.3357 33.5339 44.362 33.4207 44.362 33.2917C44.362 33.155 44.3366 33.0369 44.2859 32.9373C44.2351 32.8376 44.1579 32.7615 44.0544 32.7087C43.9509 32.656 43.821 32.6296 43.6648 32.6296H42.9529V36.2068H42.0739V31.9412ZM44.4587 36.2068L43.4861 34.3054L44.4148 34.2996L45.3991 36.1658V36.2068H44.4587ZM49.073 34.6863H47.9861V34.0007H49.073C49.2409 34.0007 49.3777 33.9734 49.4831 33.9187C49.5886 33.8621 49.6657 33.7839 49.7146 33.6843C49.7634 33.5847 49.7878 33.4724 49.7878 33.3474C49.7878 33.2205 49.7634 33.1023 49.7146 32.9929C49.6657 32.8835 49.5886 32.7957 49.4831 32.7292C49.3777 32.6628 49.2409 32.6296 49.073 32.6296H48.2907V36.2068H47.4118V31.9412H49.073C49.407 31.9412 49.6931 32.0017 49.9314 32.1228C50.1716 32.2419 50.3552 32.407 50.4821 32.6179C50.6091 32.8289 50.6726 33.0701 50.6726 33.3416C50.6726 33.6169 50.6091 33.8552 50.4821 34.0564C50.3552 34.2576 50.1716 34.4128 49.9314 34.5222C49.6931 34.6316 49.407 34.6863 49.073 34.6863ZM54.1413 35.5212V36.2068H51.8708V35.5212H54.1413ZM52.1579 31.9412V36.2068H51.279V31.9412H52.1579ZM53.8454 33.6785V34.3464H51.8708V33.6785H53.8454ZM54.1384 31.9412V32.6296H51.8708V31.9412H54.1384ZM56.6198 31.9412V36.2068H55.7439V31.9412H56.6198ZM57.9323 31.9412V32.6296H54.4519V31.9412H57.9323ZM61.2956 35.5212V36.2068H59.0251V35.5212H61.2956ZM59.3122 31.9412V36.2068H58.4333V31.9412H59.3122ZM60.9997 33.6785V34.3464H59.0251V33.6785H60.9997ZM61.2927 31.9412V32.6296H59.0251V31.9412H61.2927ZM61.8083 31.9412H63.3991C63.7253 31.9412 64.0056 31.99 64.24 32.0876C64.4763 32.1853 64.6579 32.3298 64.7849 32.5212C64.9118 32.7126 64.9753 32.948 64.9753 33.2273C64.9753 33.4558 64.9362 33.6521 64.8581 33.8162C64.782 33.9783 64.6736 34.114 64.5329 34.2234C64.3943 34.3308 64.2312 34.4167 64.0437 34.4812L63.7654 34.6277H62.3825L62.3767 33.9421H63.405C63.5593 33.9421 63.6872 33.9148 63.7888 33.8601C63.8904 33.8054 63.9665 33.7292 64.0173 33.6316C64.07 33.5339 64.0964 33.4207 64.0964 33.2917C64.0964 33.155 64.071 33.0369 64.0202 32.9373C63.9695 32.8376 63.8923 32.7615 63.7888 32.7087C63.6853 32.656 63.5554 32.6296 63.3991 32.6296H62.6872V36.2068H61.8083V31.9412ZM64.1931 36.2068L63.2204 34.3054L64.1491 34.2996L65.1335 36.1658V36.2068H64.1931ZM67.8728 35.0906C67.8728 35.0144 67.8611 34.946 67.8376 34.8855C67.8161 34.823 67.7751 34.7664 67.7146 34.7156C67.654 34.6628 67.5691 34.6111 67.4597 34.5603C67.3503 34.5095 67.2087 34.4568 67.0349 34.4021C66.8415 34.3396 66.6579 34.2693 66.4841 34.1912C66.3122 34.113 66.1599 34.0222 66.0271 33.9187C65.8962 33.8132 65.7927 33.6912 65.7165 33.5525C65.6423 33.4138 65.6052 33.2527 65.6052 33.0691C65.6052 32.8914 65.6443 32.7302 65.7224 32.5857C65.8005 32.4392 65.9099 32.3142 66.0505 32.2107C66.1911 32.1052 66.3571 32.0242 66.5486 31.9675C66.7419 31.9109 66.9538 31.8826 67.1843 31.8826C67.4987 31.8826 67.7732 31.9392 68.0075 32.0525C68.2419 32.1658 68.4236 32.321 68.5525 32.5183C68.6833 32.7156 68.7487 32.9412 68.7487 33.1951H67.8757C67.8757 33.0701 67.8493 32.9607 67.7966 32.8669C67.7458 32.7712 67.6677 32.696 67.5622 32.6414C67.4587 32.5867 67.3279 32.5593 67.1696 32.5593C67.0173 32.5593 66.8904 32.5828 66.7888 32.6296C66.6872 32.6746 66.6111 32.7361 66.5603 32.8142C66.5095 32.8904 66.4841 32.9763 66.4841 33.072C66.4841 33.1443 66.5017 33.2097 66.5368 33.2683C66.5739 33.3269 66.6286 33.3816 66.7009 33.4324C66.7732 33.4832 66.862 33.531 66.9675 33.5759C67.073 33.6208 67.195 33.6648 67.3337 33.7078C67.5661 33.7781 67.7702 33.8572 67.946 33.9451C68.1237 34.033 68.2722 34.1316 68.3913 34.241C68.5105 34.3503 68.6003 34.4744 68.6609 34.613C68.7214 34.7517 68.7517 34.9089 68.7517 35.0847C68.7517 35.2703 68.7155 35.4363 68.6433 35.5828C68.571 35.7292 68.4665 35.8533 68.3298 35.9548C68.1931 36.0564 68.03 36.1335 67.8405 36.1863C67.6511 36.239 67.4392 36.2654 67.2048 36.2654C66.9939 36.2654 66.7859 36.238 66.5808 36.1833C66.3757 36.1267 66.1892 36.0417 66.0212 35.9285C65.8552 35.8152 65.7224 35.6707 65.6228 35.4949C65.5232 35.3191 65.4734 35.1111 65.4734 34.8708H66.3552C66.3552 35.0037 66.3757 35.116 66.4167 35.2078C66.4577 35.2996 66.5154 35.3738 66.5896 35.4304C66.6657 35.4871 66.7556 35.5281 66.8591 35.5535C66.9646 35.5789 67.0798 35.5916 67.2048 35.5916C67.3571 35.5916 67.4821 35.5701 67.5798 35.5271C67.6794 35.4841 67.7527 35.4246 67.7995 35.3484C67.8484 35.2722 67.8728 35.1863 67.8728 35.0906Z" fill="#AFB1B8"/>
</svg>
