<svg id="logo-advantages"xmlns="http://www.w3.org/2000/svg" width="106" height="60" viewBox="0 0 106 60" fill="none">
<path fill-rule="evenodd" clip-rule="evenodd" d="M38 7L45.0078 13.6341L32 13.6265V45.8137H66V33.507L73 40.1338V7H38ZM65.6924 32.7283L45.8226 13.918H65.6924V32.7283ZM59.5231 41.1055H37.3801V19.4579H38.9453V39.6397H59.5231V41.1055ZM42.6089 50.0991L41.791 51.7837L40.9731 50.0991H40.2871L41.481 52.3452V53.6538H42.1011V52.3452L43.2925 50.0991H42.6089ZM43.6367 53.6538L43.9248 52.8262H45.3018L45.5923 53.6538H46.2368L44.8916 50.0991H44.3374L42.9946 53.6538H43.6367ZM44.6133 50.8535L45.1284 52.3281H44.0981L44.6133 50.8535ZM47.8701 52.2427C47.7806 52.3794 47.7358 52.5299 47.7358 52.6943C47.7358 52.9938 47.8408 53.2371 48.0508 53.4243C48.2624 53.6099 48.5439 53.7026 48.8955 53.7026C49.2471 53.7026 49.5498 53.6074 49.8037 53.417L50.0039 53.6538H50.6924L50.1699 53.0361C50.375 52.7562 50.4775 52.3973 50.4775 51.9595H49.9624C49.9624 52.1987 49.9128 52.416 49.8135 52.6113L49.1274 51.8008L49.3691 51.625C49.54 51.5013 49.6629 51.3776 49.7378 51.2539C49.8127 51.1286 49.8501 50.9919 49.8501 50.8438C49.8501 50.6191 49.7671 50.4312 49.6011 50.2798C49.4367 50.1268 49.2251 50.0503 48.9663 50.0503C48.6798 50.0503 48.452 50.1317 48.2827 50.2944C48.1134 50.4556 48.0288 50.6753 48.0288 50.9536C48.0288 51.0675 48.0557 51.1855 48.1094 51.3076C48.1647 51.4297 48.2616 51.5778 48.3999 51.752C48.1362 51.9408 47.9596 52.1043 47.8701 52.2427ZM49.4741 53.0288C49.3 53.1623 49.1128 53.229 48.9126 53.229C48.7352 53.229 48.5936 53.1777 48.4878 53.0752C48.382 52.9727 48.3291 52.8392 48.3291 52.6748C48.3291 52.4844 48.4268 52.3151 48.6221 52.167L48.6978 52.1133L49.4741 53.0288ZM48.8369 51.4541C48.6693 51.2474 48.5854 51.0757 48.5854 50.939C48.5854 50.8201 48.6196 50.7217 48.688 50.6436C48.7563 50.5654 48.8483 50.5264 48.9639 50.5264C49.0713 50.5264 49.16 50.5597 49.23 50.6265C49.3 50.6916 49.335 50.7705 49.335 50.8633C49.335 51.0033 49.2845 51.118 49.1836 51.2075L49.1079 51.2686L48.8369 51.4541ZM54.623 53.3853C54.8672 53.172 55.0072 52.8758 55.043 52.4966H54.4277C54.3952 52.7505 54.3179 52.932 54.1958 53.041C54.0737 53.1501 53.8914 53.2046 53.6489 53.2046C53.3836 53.2046 53.1818 53.1037 53.0435 52.9019C52.9067 52.7 52.8384 52.4071 52.8384 52.0229V51.708C52.8416 51.3288 52.9149 51.0415 53.0581 50.8462C53.203 50.6493 53.4097 50.5508 53.6782 50.5508C53.9093 50.5508 54.0843 50.6077 54.2031 50.7217C54.3236 50.834 54.3984 51.0179 54.4277 51.2734H55.043C55.0039 50.8844 54.8647 50.5833 54.6255 50.3701C54.3862 50.1569 54.0705 50.0503 53.6782 50.0503C53.3869 50.0503 53.1297 50.1195 52.9067 50.2578C52.6854 50.3962 52.5153 50.5931 52.3965 50.8486C52.2777 51.1042 52.2183 51.3996 52.2183 51.7349V52.0669C52.2231 52.394 52.2842 52.6813 52.4014 52.9287C52.5186 53.1761 52.6846 53.3674 52.8994 53.5024C53.1159 53.6359 53.3657 53.7026 53.6489 53.7026C54.0542 53.7026 54.3789 53.5968 54.623 53.3853ZM58.2534 52.8872C58.3739 52.6235 58.4341 52.3175 58.4341 51.9692V51.7715C58.4325 51.4248 58.3706 51.1213 58.2485 50.8608C58.1265 50.5988 57.9531 50.3986 57.7285 50.2603C57.5055 50.1203 57.2492 50.0503 56.9595 50.0503C56.6698 50.0503 56.4126 50.1211 56.188 50.2627C55.965 50.4027 55.7917 50.6053 55.668 50.8706C55.5459 51.1359 55.4849 51.4419 55.4849 51.7886V51.9888C55.4865 52.3289 55.5483 52.6292 55.6704 52.8896C55.7941 53.1501 55.9683 53.3511 56.1929 53.4927C56.4191 53.6326 56.6763 53.7026 56.9644 53.7026C57.2557 53.7026 57.5129 53.6326 57.7358 53.4927C57.9604 53.3511 58.133 53.1493 58.2534 52.8872ZM57.5918 50.8779C57.7415 51.0879 57.8164 51.3898 57.8164 51.7837V51.9692C57.8164 52.3696 57.7423 52.674 57.5942 52.8823C57.4478 53.0907 57.2378 53.1948 56.9644 53.1948C56.6942 53.1948 56.4826 53.0882 56.3296 52.875C56.1782 52.6618 56.1025 52.3599 56.1025 51.9692V51.7642C56.1058 51.3817 56.1823 51.0863 56.332 50.8779C56.4834 50.668 56.6925 50.563 56.9595 50.563C57.2329 50.563 57.4437 50.668 57.5918 50.8779Z" fill="#AFB1B8"/>
</svg>
<!-- symboldefts.svg -->
<svg id="antenna" xmlns="http://www.w3.org/2000/svg" width="70" height="70" viewBox="0 0 70 70" fill="none">
<path d="M67.3163 48.3385L48.8468 29.7337L50.8966 19.6373C51.4256 19.8438 51.9879 19.9517 52.5556 19.9558H52.5696C55.1777 19.9866 57.3169 17.8974 57.3479 15.2893C57.3788 12.6812 55.2894 10.542 52.6813 10.5111C50.0732 10.4803 47.934 12.5695 47.9031 15.1776C47.8965 15.7357 47.9888 16.2905 48.176 16.8163L37.326 18.1405L19.6276 0.35C19.4105 0.128479 19.1141 0.00247917 18.804 0C18.4977 0.00160417 18.2044 0.123521 17.9873 0.3395L14.6786 3.6295C14.2232 4.08508 14.2232 4.82358 14.6786 5.27917L16.459 7.08517C9.56162 19.7681 11.8019 35.4741 21.9703 45.7228C22.0636 45.8121 22.1718 45.8843 22.29 45.9363C22.2165 46.3311 22.1781 46.7317 22.1756 47.1333V60.6667H8.17562C4.95562 60.6705 2.34608 63.28 2.34229 66.5V68.8333C2.34229 69.4776 2.86466 70 3.50895 70H57.1756C57.8199 70 58.3423 69.4776 58.3423 68.8333V66.5C58.3385 63.28 55.729 60.6705 52.509 60.6667H38.509V54.6688C40.7021 55.1288 42.9367 55.3633 45.1776 55.3688C50.5548 55.363 55.8464 54.0225 60.5776 51.4675L62.3673 53.2677C62.5844 53.4892 62.8808 53.6152 63.191 53.6177C63.4972 53.6161 63.7905 53.4941 64.0076 53.2782L67.3163 49.9882C67.7717 49.5326 67.7717 48.7941 67.3163 48.3385ZM50.9246 13.6348C51.8383 12.726 53.3157 12.7301 54.2244 13.6437C55.1332 14.5574 55.1291 16.0348 54.2155 16.9435C53.7781 17.3785 53.1864 17.6226 52.5695 17.6225H52.5625C51.2739 17.6158 50.2345 16.5658 50.2412 15.2771C50.2445 14.6602 50.4918 14.0699 50.9291 13.6348H50.9246ZM48.1783 21.301L46.8693 27.7445L44.298 25.158L48.1783 21.301ZM46.853 19.3282L42.653 23.5037L39.4038 20.237L46.853 19.3282ZM52.509 63C54.442 63 56.009 64.567 56.009 66.5V67.6667H4.67562V66.5C4.67562 64.567 6.2426 63 8.17562 63H52.509ZM36.1756 58.3333V60.6667H24.509V58.3333H36.1756ZM24.509 56V47.1333C24.509 44.303 27.1258 42 30.3423 42C33.5588 42 36.1756 44.303 36.1756 47.1333V56H24.509ZM38.509 52.29V47.1333C38.509 43.0162 34.8456 39.6667 30.3423 39.6667C27.4306 39.622 24.7079 41.1041 23.165 43.5738C14.2887 34.2249 12.2899 20.2875 18.1805 8.82073L58.872 49.7455C52.5886 52.9419 45.3857 53.8418 38.509 52.29ZM63.2038 50.7943L61.56 49.1412L18.7923 6.11567L17.1415 4.46133L18.7923 2.81633L36.15 20.272C36.1581 20.272 36.1628 20.2872 36.171 20.293L64.8593 49.1493L63.2038 50.7943Z" fill="#212121"/>
<path d="M30.3528 44.3333H30.3423C28.4093 44.3304 26.84 45.895 26.837 47.8281C26.8341 49.7611 28.3988 51.3304 30.3318 51.3333H30.3423C32.2753 51.3362 33.8446 49.7716 33.8475 47.8386C33.8505 45.9055 32.2858 44.3362 30.3528 44.3333ZM31.1695 48.6605C30.9498 48.8789 30.6522 49.0012 30.3423 49C29.698 48.9966 29.1784 48.4716 29.1817 47.8273C29.1834 47.5189 29.307 47.2237 29.5256 47.0062C29.7428 46.7902 30.036 46.6683 30.3423 46.6667C30.9866 46.67 31.5062 47.195 31.5028 47.8393C31.5012 48.1477 31.3776 48.4429 31.159 48.6605H31.1695Z" fill="#2196F3"/>
</svg>

<svg  id="astronaut" xmlns="http://www.w3.org/2000/svg" width="70" height="70" viewBox="0 0 70 70" fill="none">
  <path d="M69.9433 9.89637C69.8056 9.47513 69.4416 9.16724 69.0018 9.10298L64.8228 8.49512L62.9526 4.70809C62.5606 3.91005 61.2527 3.91005 60.8608 4.70809L58.9906 8.49512L54.8114 9.10312C54.3716 9.16724 54.0076 9.47418 53.8687 9.89651C53.7323 10.3188 53.8453 10.7831 54.1639 11.0924L57.1891 14.0407L56.4752 18.2034C56.4005 18.6409 56.5802 19.0831 56.9384 19.3445C57.3012 19.6082 57.7748 19.6407 58.168 19.4331L61.9061 17.4672L65.6442 19.4331C65.8146 19.5229 66.0024 19.5672 66.1879 19.5672C66.4294 19.5672 66.671 19.4925 66.874 19.3443C67.2333 19.0831 67.413 18.6408 67.3372 18.2033L66.6233 14.0405L69.6485 11.0923C69.9654 10.7819 70.0798 10.3187 69.9433 9.89637ZM64.5556 12.7991C64.2815 13.0662 64.1555 13.4536 64.2208 13.8316L64.6385 16.2688L62.4499 15.1184C62.2795 15.0286 62.0929 14.9843 61.9061 14.9843C61.7195 14.9843 61.534 15.0286 61.3624 15.1184L59.1736 16.2688L59.5913 13.8316C59.6567 13.4536 59.5306 13.0675 59.2565 12.7991L57.4843 11.0724L59.932 10.7166C60.3124 10.6617 60.6402 10.4226 60.8106 10.0783L61.9049 7.86169L62.9992 10.0783C63.1696 10.4225 63.4974 10.6617 63.8778 10.7166L66.3255 11.0724L64.5556 12.7991Z" fill="#2196F3"/>
  <path d="M57.167 44.8923H54.8336V47.2257H57.167V44.8923Z" fill="#2196F3"/>
  <path d="M57.167 49.5591H54.8336V51.8925H57.167V49.5591Z" fill="#2196F3"/>
  <path d="M59.5004 47.2257H57.167V49.5591H59.5004V47.2257Z" fill="#2196F3"/>
  <path d="M54.8337 47.2257H52.5003V49.5591H54.8337V47.2257Z" fill="#2196F3"/>
  <path d="M49.0002 57.7259H46.6668V60.0593H49.0002V57.7259Z" fill="#2196F3"/>
  <path d="M49.0002 62.3926H46.6668V64.726H49.0002V62.3926Z" fill="#2196F3"/>
  <path d="M51.3337 60.0593H49.0002V62.3927H51.3337V60.0593Z" fill="#2196F3"/>
  <path d="M46.6668 60.0593H44.3334V62.3927H46.6668V60.0593Z" fill="#2196F3"/>
  <path d="M35 53.0592H32.6666V55.3926H35V53.0592Z" fill="#2196F3"/>
  <path d="M35 57.7259H32.6666V60.0593H35V57.7259Z" fill="#2196F3"/>
  <path d="M37.3334 55.3925H35V57.7259H37.3334V55.3925Z" fill="#2196F3"/>
  <path d="M32.6666 55.3925H30.3332V57.7259H32.6666V55.3925Z" fill="#2196F3"/>
  <path d="M12.833 13.3918H10.4996V15.7252H12.833V13.3918Z" fill="#2196F3"/>
  <path d="M12.833 18.0587H10.4996V20.3921H12.833V18.0587Z" fill="#2196F3"/>
  <path d="M15.1663 15.7252H12.8329V18.0586H15.1663V15.7252Z" fill="#2196F3"/>
  <path d="M10.4996 15.7252H8.1662V18.0586H10.4996V15.7252Z" fill="#2196F3"/>
  <path d="M54.0635 30.9738C53.4348 30.1256 52.5119 29.5797 51.4642 29.4326C50.4119 29.2833 49.3735 29.5597 48.5335 30.2026L45.7952 32.3014L45.794 32.3026L41.6429 35.4025L38.6725 34.2194C43.9692 31.8429 47.6712 26.545 47.6712 20.3942C47.6712 12.0314 40.8402 5.22736 32.4436 5.22736C24.047 5.22736 17.2162 12.0314 17.2162 20.3942C17.2162 23.4253 18.1226 26.2439 19.6662 28.6158L13.6204 28.5633C13.6169 28.5633 13.6134 28.5633 13.6099 28.5633C13.5912 28.5633 13.5761 28.5726 13.5586 28.5738C13.4431 28.5785 13.3299 28.6018 13.2191 28.6415C13.1911 28.652 13.162 28.6579 13.1352 28.6706C13.1212 28.6765 13.1072 28.6776 13.0932 28.6846L6.02078 32.1764C6.01955 32.1764 6.01846 32.1764 6.01846 32.1775L1.87663 34.1693C1.8311 34.1891 1.78448 34.2159 1.73895 34.2462C0.0880496 35.3452 -0.474284 37.5036 0.429989 39.2676C0.911793 40.2056 1.73198 40.8963 2.74003 41.2124C3.12859 41.3337 3.52521 41.3933 3.91952 41.3933C4.55308 41.3933 5.18077 41.2381 5.75582 40.9313L8.79157 39.3167L13.7441 36.7593L16.7122 36.7418L4.80848 48.5884C4.80738 48.5896 4.80615 48.5896 4.80492 48.5907L1.8765 51.5074C1.18469 52.1958 0.80433 53.1092 0.80433 54.0835C0.80433 55.0565 1.18469 55.9723 1.8765 56.6619C2.58703 57.3689 3.52152 57.7235 4.45601 57.7235C5.39173 57.7235 6.32498 57.3689 7.03785 56.6619L9.91254 53.7988L13.7206 50.9556L15.6912 52.9179L11.8376 56.7551C11.8365 56.7564 11.8352 56.7564 11.834 56.7575L8.90559 59.6741C8.21378 60.3625 7.83343 61.2759 7.83343 62.2502C7.83343 63.2233 8.21378 64.139 8.90559 64.8286C9.61613 65.5356 10.5518 65.8903 11.4863 65.8903C12.4208 65.8903 13.3565 65.5356 14.0682 64.8286L16.9977 61.912L21.6842 57.2453C21.6854 57.244 21.6854 57.2429 21.6865 57.2417L23.8951 55.0542L23.8869 55.046C23.9009 55.032 23.9207 55.0272 23.9348 55.0122L35.2353 42.6349L42.8281 43.7152C42.8829 43.7234 42.9377 43.7269 42.9926 43.7269C43.1338 43.7269 43.2703 43.6931 43.4021 43.6429C43.4406 43.629 43.4744 43.6102 43.5106 43.5916C43.5526 43.5706 43.5969 43.559 43.6367 43.5322L50.6659 38.8655C50.6916 38.848 50.7056 38.8199 50.73 38.8013C50.758 38.7792 50.7931 38.7699 50.8186 38.7453L53.5999 36.1401C55.0471 34.7841 55.2466 32.5628 54.0635 30.9738ZM4.66027 38.8722C4.28114 39.0752 3.85061 39.1159 3.43881 38.9854C3.03042 38.8582 2.69915 38.5793 2.50541 38.2025C2.15308 37.5164 2.35721 36.6811 2.97436 36.2296L5.84796 34.8471L6.53977 36.8689L6.8303 37.7182L4.66027 38.8722ZM12.3102 34.874L8.92336 36.6241L8.36459 34.9907L7.96331 33.8169L12.3968 31.6282L12.3102 34.874ZM45.3402 20.3919C45.3402 22.4009 44.8607 24.2957 44.03 25.9907L34.8832 21.8362C34.7875 20.5821 34.1366 19.4842 33.1589 18.8005L36.3615 8.16849C41.5626 9.82295 45.3402 14.6752 45.3402 20.3919ZM19.5519 20.3919C19.5519 13.3159 25.3363 7.55831 32.4461 7.55831C32.9991 7.55831 33.5404 7.60493 34.0759 7.67261L30.9434 18.0713C30.9014 18.0701 30.8617 18.0585 30.8185 18.0585C28.5598 18.0585 26.7222 19.8901 26.7222 22.1419C26.7222 24.3936 28.5598 26.2254 30.8185 26.2254C32.3375 26.2254 33.65 25.3866 34.3582 24.1591L42.8073 27.9975C40.4564 31.1615 36.6938 33.2255 32.4459 33.2255C25.3363 33.2255 19.5519 27.4679 19.5519 20.3919ZM32.5814 22.1419C32.5814 23.1068 31.7903 23.8919 30.8185 23.8919C29.8467 23.8919 29.0557 23.1068 29.0557 22.1419C29.0557 21.1771 29.8467 20.3919 30.8185 20.3919C31.7903 20.3919 32.5814 21.1771 32.5814 22.1419ZM5.39186 55.0074C4.87506 55.5196 4.03846 55.5185 3.52289 55.0087C3.27433 54.7601 3.13788 54.4324 3.13788 54.0835C3.13788 53.7358 3.27433 53.4079 3.52289 53.1618L5.62743 51.0652L7.48944 52.9191L5.39186 55.0074ZM12.4222 63.1743C11.9054 63.6865 11.0677 63.6877 10.552 63.1755C10.3034 62.927 10.167 62.5993 10.167 62.2503C10.167 61.9027 10.3034 61.5748 10.552 61.3287L12.6579 59.231L13.5388 60.1073L14.5211 61.0849L12.4222 63.1743ZM20.0384 55.5862C20.0371 55.5873 20.036 55.5873 20.0348 55.5885L16.1742 59.4385L15.2933 58.5623L14.311 57.5846L18.168 53.7451C18.168 53.7451 18.168 53.7451 18.168 53.744C18.1693 53.7428 18.1703 53.7428 18.1716 53.7417C18.2591 53.6542 18.3139 53.5492 18.3676 53.4454C18.3828 53.415 18.4119 53.3893 18.4248 53.3579C18.461 53.2681 18.4668 53.1713 18.4808 53.0767C18.4878 53.0229 18.5112 52.9729 18.5112 52.9179C18.5112 52.8397 18.4832 52.764 18.4669 52.6869C18.4529 52.6169 18.4529 52.5456 18.426 52.4781C18.3817 52.3684 18.3058 52.2716 18.2265 52.177C18.2044 52.1513 18.1962 52.1186 18.1717 52.0942C18.1717 52.0942 18.1717 52.0942 18.1705 52.0942C18.1693 52.0931 18.1693 52.0906 18.1682 52.0895L14.6529 48.5895C14.6156 48.5521 14.5678 48.537 14.5258 48.5055C14.464 48.4577 14.4045 48.4134 14.3356 48.3795C14.2692 48.3468 14.2015 48.327 14.1315 48.3082C14.0568 48.2872 13.9845 48.2709 13.9063 48.265C13.8351 48.2604 13.7686 48.2674 13.6975 48.2756C13.6193 48.2849 13.5459 48.2954 13.47 48.3199C13.3965 48.3432 13.3312 48.3793 13.2636 48.4179C13.2204 48.4424 13.1714 48.4506 13.1305 48.4809L9.25136 51.3767L7.2808 49.4143L12.5286 44.1946L22.0674 53.576L20.0384 55.5862ZM34.9545 40.2372C34.9207 40.2325 34.8891 40.2454 34.8554 40.2431C34.7702 40.2384 34.6886 40.2443 34.6034 40.2582C34.5369 40.2699 34.4739 40.2827 34.4109 40.3049C34.3362 40.3306 34.2686 40.3656 34.1996 40.4075C34.1343 40.4472 34.0748 40.4892 34.0177 40.5417C33.9896 40.5661 33.9559 40.5779 33.9302 40.6058L23.6527 51.862L14.1851 42.5506L20.3825 36.3859C20.8387 35.9309 20.8411 35.1923 20.386 34.735C20.1562 34.5052 19.8541 34.392 19.5519 34.3932V34.3921L14.6985 34.4212L14.7592 30.9049L21.5493 30.9633C24.3166 33.7937 28.176 35.5589 32.4461 35.5589C33.4027 35.5589 34.3361 35.4598 35.2449 35.2905C35.3324 35.3605 35.4186 35.4317 35.5284 35.476L40.7996 37.5761L41.1332 39.235L41.5228 41.1717L34.9545 40.2372ZM43.7944 40.6269L43.1096 37.2189L46.2736 34.8564L47.102 35.9554L48.3445 37.605L43.7944 40.6269ZM52.0055 34.4341L50.1726 36.1514L48.1356 33.4471L49.9544 32.0529C50.2939 31.7917 50.7221 31.6854 51.1421 31.7403C51.5644 31.7997 51.9378 32.0203 52.1921 32.3621C52.6659 33.0003 52.5853 33.8905 52.0055 34.4341Z" fill="#212121"/>
  <path d="M29.7545 40.5651L25.0668 35.8984C24.613 35.4446 23.8755 35.4446 23.4205 35.8984L18.734 40.5651C18.5147 40.7856 18.391 41.0819 18.391 41.3922C18.391 41.7026 18.5135 42.0001 18.734 42.2194L23.4205 46.8861C23.648 47.1124 23.9468 47.2256 24.2443 47.2256C24.5418 47.2256 24.8404 47.1124 25.0668 46.8861L29.7545 42.2194C29.9738 42.0001 30.0987 41.7026 30.0987 41.3922C30.0987 41.0819 29.9749 40.7844 29.7545 40.5651ZM24.2443 44.4128L21.2109 41.3922L24.2443 38.3717L27.2788 41.3922L24.2443 44.4128Z" fill="#212121"/>
  <path d="M37.5468 11.0923L36.9833 13.358C37.1385 13.3966 40.7844 14.3462 40.7844 18.0586H43.1178C43.1177 13.6461 39.4742 11.5718 37.5468 11.0923Z" fill="#212121"/>
  <path d="M43.1178 20.3919H40.7844V22.7253H43.1178V20.3919Z" fill="#212121"/>
</svg>


<svg id="clock" xmlns="http://www.w3.org/2000/svg" width="70" height="70" viewBox="0 0 70 70" fill="none">
  <g clip-path="url(#clip0_11_3261)">
    <path d="M68.4614 33.4715C68.4576 14.9819 53.4656 -0.00373771 34.9754 6.99302e-07C16.4858 0.00373911 1.50017 14.9963 1.50391 33.4859C1.50711 48.0502 10.9252 60.9413 24.7995 65.3713C24.9319 65.413 25.0697 65.4343 25.2081 65.4338C25.4719 65.4333 25.7304 65.3628 25.9573 65.2287C26.2527 65.0541 26.4732 64.7764 26.5768 64.449L35.0315 37.6521C37.3429 37.6404 39.2068 35.7568 39.1945 33.4459C39.1827 31.1345 37.2997 29.2706 34.9883 29.2824C34.3666 29.285 33.753 29.4282 33.1944 29.7011L22.0251 18.5302C21.4707 17.9951 20.5879 18.0106 20.0528 18.5644C19.5305 19.1054 19.5305 19.962 20.0528 20.503L31.2162 31.6792C30.3596 33.4277 30.8493 35.5383 32.3895 36.7303L24.3338 62.2647C8.41354 56.4002 0.261689 38.7405 6.12618 22.8203C11.9907 6.90002 29.6503 -1.25183 45.5706 4.61266C61.4909 10.4771 69.6427 28.1374 63.7782 44.0571C60.913 51.8351 55.0261 58.1252 47.4548 61.4989L46.5842 57.3989C46.4251 56.6454 45.6844 56.1636 44.9308 56.3233C44.6931 56.3741 44.4726 56.4857 44.291 56.6475L35.8978 64.1409C35.322 64.653 35.2708 65.5347 35.7835 66.1105C35.9501 66.2974 36.1637 66.4362 36.403 66.5126L47.1188 69.9327C47.8521 70.1682 48.6377 69.765 48.8732 69.0312C48.948 68.7994 48.9603 68.5527 48.9101 68.3145L48.0545 64.2915C60.4452 59.0678 68.4902 46.918 68.4614 33.4715ZM34.9829 32.0766C35.753 32.0766 36.3779 32.7014 36.3779 33.4715C36.3779 34.2422 35.753 34.8665 34.9829 34.8665C34.2123 34.8665 33.588 34.2422 33.588 33.4715C33.588 32.7014 34.2123 32.0766 34.9829 32.0766ZM39.5774 64.5916L44.3551 60.3298L45.6737 66.543L39.5774 64.5916Z" fill="#212121"/>
    <path d="M33.5879 6.96729V9.7572C33.5879 10.5278 34.2122 11.1522 34.9828 11.1522C35.753 11.1522 36.3778 10.5278 36.3778 9.7572V6.96729C36.3778 6.19717 35.753 5.57233 34.9828 5.57233C34.2122 5.57233 33.5879 6.19717 33.5879 6.96729Z" fill="#2196F3"/>
    <path d="M8.4787 32.0765C7.70805 32.0765 7.08374 32.7014 7.08374 33.4715C7.08374 34.2421 7.70805 34.8665 8.4787 34.8665H11.2686C12.0393 34.8665 12.6636 34.2421 12.6636 33.4715C12.6636 32.7014 12.0393 32.0765 11.2686 32.0765H8.4787Z" fill="#2196F3"/>
    <path d="M61.4865 34.8665C62.2572 34.8665 62.8815 34.2421 62.8815 33.4715C62.8815 32.7014 62.2572 32.0765 61.4865 32.0765H58.6966C57.9265 32.0765 57.3016 32.7014 57.3016 33.4715C57.3016 34.2421 57.9265 34.8665 58.6966 34.8665H61.4865Z" fill="#2196F3"/>
  </g>
  <defs>
    <clipPath id="clip0_11_3261">
      <rect width="70" height="70" fill="white"/>
    </clipPath>
  </defs>
</svg>


<svg id="component1" xmlns="http://www.w3.org/2000/svg" width="106" height="60" viewBox="0 0 106 60" fill="inherit">
  <path fill-rule="evenodd" clip-rule="evenodd" d="M38 7L45.0078 13.6341L32 13.6265V45.8137H66V33.507L73 40.1338V7H38ZM65.6924 32.7283L45.8226 13.918H65.6924V32.7283ZM59.5231 41.1055H37.3801V19.4579H38.9453V39.6397H59.5231V41.1055ZM42.6089 50.0991L41.791 51.7837L40.9731 50.0991H40.2871L41.481 52.3452V53.6538H42.1011V52.3452L43.2925 50.0991H42.6089ZM43.6367 53.6538L43.9248 52.8262H45.3018L45.5923 53.6538H46.2368L44.8916 50.0991H44.3374L42.9946 53.6538H43.6367ZM44.6133 50.8535L45.1284 52.3281H44.0981L44.6133 50.8535ZM47.8701 52.2427C47.7806 52.3794 47.7358 52.5299 47.7358 52.6943C47.7358 52.9938 47.8408 53.2371 48.0508 53.4243C48.2624 53.6099 48.5439 53.7026 48.8955 53.7026C49.2471 53.7026 49.5498 53.6074 49.8037 53.417L50.0039 53.6538H50.6924L50.1699 53.0361C50.375 52.7562 50.4775 52.3973 50.4775 51.9595H49.9624C49.9624 52.1987 49.9128 52.416 49.8135 52.6113L49.1274 51.8008L49.3691 51.625C49.54 51.5013 49.6629 51.3776 49.7378 51.2539C49.8127 51.1286 49.8501 50.9919 49.8501 50.8438C49.8501 50.6191 49.7671 50.4312 49.6011 50.2798C49.4367 50.1268 49.2251 50.0503 48.9663 50.0503C48.6798 50.0503 48.452 50.1317 48.2827 50.2944C48.1134 50.4556 48.0288 50.6753 48.0288 50.9536C48.0288 51.0675 48.0557 51.1855 48.1094 51.3076C48.1647 51.4297 48.2616 51.5778 48.3999 51.752C48.1362 51.9408 47.9596 52.1043 47.8701 52.2427ZM49.4741 53.0288C49.3 53.1623 49.1128 53.229 48.9126 53.229C48.7352 53.229 48.5936 53.1777 48.4878 53.0752C48.382 52.9727 48.3291 52.8392 48.3291 52.6748C48.3291 52.4844 48.4268 52.3151 48.6221 52.167L48.6978 52.1133L49.4741 53.0288ZM48.8369 51.4541C48.6693 51.2474 48.5854 51.0757 48.5854 50.939C48.5854 50.8201 48.6196 50.7217 48.688 50.6436C48.7563 50.5654 48.8483 50.5264 48.9639 50.5264C49.0713 50.5264 49.16 50.5597 49.23 50.6265C49.3 50.6916 49.335 50.7705 49.335 50.8633C49.335 51.0033 49.2845 51.118 49.1836 51.2075L49.1079 51.2686L48.8369 51.4541ZM54.623 53.3853C54.8672 53.172 55.0072 52.8758 55.043 52.4966H54.4277C54.3952 52.7505 54.3179 52.932 54.1958 53.041C54.0737 53.1501 53.8914 53.2046 53.6489 53.2046C53.3836 53.2046 53.1818 53.1037 53.0435 52.9019C52.9067 52.7 52.8384 52.4071 52.8384 52.0229V51.708C52.8416 51.3288 52.9149 51.0415 53.0581 50.8462C53.203 50.6493 53.4097 50.5508 53.6782 50.5508C53.9093 50.5508 54.0843 50.6077 54.2031 50.7217C54.3236 50.834 54.3984 51.0179 54.4277 51.2734H55.043C55.0039 50.8844 54.8647 50.5833 54.6255 50.3701C54.3862 50.1569 54.0705 50.0503 53.6782 50.0503C53.3869 50.0503 53.1297 50.1195 52.9067 50.2578C52.6854 50.3962 52.5153 50.5931 52.3965 50.8486C52.2777 51.1042 52.2183 51.3996 52.2183 51.7349V52.0669C52.2231 52.394 52.2842 52.6813 52.4014 52.9287C52.5186 53.1761 52.6846 53.3674 52.8994 53.5024C53.1159 53.6359 53.3657 53.7026 53.6489 53.7026C54.0542 53.7026 54.3789 53.5968 54.623 53.3853ZM58.2534 52.8872C58.3739 52.6235 58.4341 52.3175 58.4341 51.9692V51.7715C58.4325 51.4248 58.3706 51.1213 58.2485 50.8608C58.1265 50.5988 57.9531 50.3986 57.7285 50.2603C57.5055 50.1203 57.2492 50.0503 56.9595 50.0503C56.6698 50.0503 56.4126 50.1211 56.188 50.2627C55.965 50.4027 55.7917 50.6053 55.668 50.8706C55.5459 51.1359 55.4849 51.4419 55.4849 51.7886V51.9888C55.4865 52.3289 55.5483 52.6292 55.6704 52.8896C55.7941 53.1501 55.9683 53.3511 56.1929 53.4927C56.4191 53.6326 56.6763 53.7026 56.9644 53.7026C57.2557 53.7026 57.5129 53.6326 57.7358 53.4927C57.9604 53.3511 58.133 53.1493 58.2534 52.8872ZM57.5918 50.8779C57.7415 51.0879 57.8164 51.3898 57.8164 51.7837V51.9692C57.8164 52.3696 57.7423 52.674 57.5942 52.8823C57.4478 53.0907 57.2378 53.1948 56.9644 53.1948C56.6942 53.1948 56.4826 53.0882 56.3296 52.875C56.1782 52.6618 56.1025 52.3599 56.1025 51.9692V51.7642C56.1058 51.3817 56.1823 51.0863 56.332 50.8779C56.4834 50.668 56.6925 50.563 56.9595 50.563C57.2329 50.563 57.4437 50.668 57.5918 50.8779Z" fill="#AFB1B8"/>
</svg>

<svg id="component2" xmlns="http://www.w3.org/2000/svg" width="106" height="60" viewBox="0 0 106 60" fill="none">
  <path fill-rule="evenodd" clip-rule="evenodd" d="M50.1136 5.93452H49.977C49.7671 5.92181 49.5571 5.91672 49.3471 5.91163H49.3471H49.3269H48.8918C48.4946 5.91163 48.0898 5.92181 47.6876 5.94215C47.6573 5.93994 47.6269 5.93994 47.5966 5.94215C43.9522 6.14863 40.3817 7.05951 37.0805 8.62492L36.6479 8.83344V30.9746L37.6598 30.6313C38.5477 30.3261 39.4938 30.0515 40.4728 29.7972C43.1193 29.1178 45.8367 28.7567 48.568 28.7216V31.6306C48.2062 31.6332 47.8546 31.6434 47.503 31.6612H47.4195C45.3175 31.7765 43.2317 32.0967 41.1913 32.6173C38.6072 33.2643 36.1143 34.2357 33.7716 35.5086V7.11189C36.2047 5.69275 38.8253 4.62687 41.5556 3.94596C43.9527 3.32705 46.4169 3.00931 48.8918 3H49.3193C49.8303 3.01271 50.3287 3.0356 50.7967 3.0712C52.0297 3.15778 53.2528 3.35263 54.4521 3.65353V6.51685C53.2874 6.24551 52.1032 6.06695 50.9105 5.98284C50.8863 5.98079 50.8621 5.97872 50.8379 5.97666C50.5911 5.95561 50.344 5.93452 50.1136 5.93452ZM55.1528 8.86138C55.7877 8.9097 56.4455 8.93259 57.1108 8.93259C59.7125 8.92307 62.3031 8.59083 64.8239 7.94339C67.4068 7.29396 69.8986 6.32178 72.2411 5.04956V32.9402C69.8067 34.3585 67.1853 35.4243 64.4546 36.1061C62.0571 36.7227 59.5931 37.0395 57.1184 37.0496C55.2433 37.0647 53.3737 36.8443 51.553 36.3935V8.32229C51.983 8.42146 52.4257 8.51301 52.876 8.58929C53.6147 8.7139 54.3939 8.80544 55.1528 8.86138ZM69.3471 9.07753L68.3352 9.41828C67.4042 9.73106 66.4657 10.0108 65.5221 10.26C62.7749 10.966 59.9514 11.3281 57.1158 11.3382C56.4556 11.3382 55.8485 11.3204 55.2616 11.2822L54.4546 11.2288V31.3178V34.0057L55.1477 34.0667C55.7903 34.1227 56.4531 34.1506 57.1209 34.1506C59.3544 34.1412 61.5781 33.8533 63.7412 33.2937C65.5223 32.8469 67.2552 32.2243 68.9145 31.4348L69.3471 31.2263V9.07753Z" fill="#AFB1B8"/>
  <path d="M35.7371 45.2123C35.5917 45.0614 35.4163 44.9429 35.2224 44.8645C35.0284 44.7861 34.8203 44.7495 34.6114 44.7571C34.3888 44.7541 34.1678 44.7956 33.9613 44.8791C33.7719 44.9546 33.5998 45.0679 33.4553 45.2123C33.3125 45.3571 33.2013 45.5303 33.129 45.7208C33.0497 45.9205 33.0101 46.1339 33.0126 46.3489V50.143C33.0036 50.4103 33.0546 50.6763 33.1619 50.9211C33.2514 51.1155 33.3807 51.2888 33.5413 51.4297C33.693 51.5573 33.871 51.6494 34.0625 51.6992C34.2469 51.7511 34.4376 51.7776 34.6291 51.7781C34.8404 51.7802 35.0495 51.735 35.2413 51.6458C35.4309 51.5629 35.6028 51.4437 35.7473 51.2949C35.8881 51.1475 36.0005 50.975 36.0786 50.7863C36.1597 50.595 36.201 50.3891 36.2001 50.1811V49.7564H35.2084V50.0947C35.2114 50.2101 35.1916 50.3251 35.1502 50.4329C35.1179 50.5136 35.0688 50.5865 35.006 50.6465C34.9446 50.6961 34.8742 50.7332 34.7986 50.7558C34.7316 50.7781 34.6617 50.7901 34.5912 50.7914C34.5026 50.8017 34.413 50.7883 34.3312 50.7526C34.2495 50.7169 34.1786 50.6601 34.1257 50.588C34.0322 50.4355 33.9864 50.2583 33.9942 50.0794V46.5422C33.988 46.3461 34.0297 46.1514 34.1156 45.9751C34.1671 45.8951 34.2399 45.8311 34.3258 45.7907C34.4117 45.7502 34.5071 45.7348 34.6013 45.7463C34.6868 45.7432 34.7717 45.7611 34.8488 45.7983C34.9259 45.8355 34.9929 45.8909 35.044 45.9599C35.155 46.1056 35.213 46.285 35.2084 46.4685V46.7965H36.19V46.41C36.1919 46.183 36.1507 45.9577 36.0685 45.7463C35.9953 45.5475 35.8825 45.3658 35.7371 45.2123Z" fill="#AFB1B8"/>
  <path d="M41.6289 45.169C41.3127 44.902 40.9136 44.7545 40.5007 44.752C40.2987 44.7528 40.0984 44.7889 39.9087 44.8588C39.7161 44.9278 39.5384 45.0331 39.3851 45.169C39.2208 45.3167 39.0897 45.4978 39.0005 45.7005C38.9006 45.9322 38.8515 46.1828 38.8563 46.4354V50.0743C38.8495 50.3302 38.8987 50.5846 39.0005 50.8193C39.0903 51.015 39.2215 51.1886 39.3851 51.3279C39.5367 51.4687 39.7147 51.5776 39.9087 51.6483C40.0984 51.7181 40.2987 51.7543 40.5007 51.7551C40.7027 51.7547 40.9031 51.7186 41.0926 51.6483C41.29 51.5766 41.4719 51.4679 41.6289 51.3279C41.7871 51.186 41.9145 51.0129 42.0033 50.8193C42.1051 50.5846 42.1544 50.3302 42.1475 50.0743V46.4354C42.1524 46.1828 42.1032 45.9322 42.0033 45.7005C41.9151 45.5 41.7878 45.3193 41.6289 45.169ZM41.166 50.0743C41.1743 50.1713 41.1609 50.2689 41.1268 50.36C41.0926 50.4511 41.0386 50.5333 40.9687 50.6007C40.8377 50.7105 40.6725 50.7707 40.5019 50.7707C40.3313 50.7707 40.1662 50.7105 40.0352 50.6007C39.9652 50.5333 39.9112 50.4511 39.8771 50.36C39.8429 50.2689 39.8295 50.1713 39.8379 50.0743V46.4354C39.8295 46.3384 39.8429 46.2407 39.8771 46.1496C39.9112 46.0585 39.9652 45.9763 40.0352 45.909C40.1662 45.7991 40.3313 45.739 40.5019 45.739C40.6725 45.739 40.8377 45.7991 40.9687 45.909C41.0386 45.9763 41.0926 46.0585 41.1268 46.1496C41.1609 46.2407 41.1743 46.3384 41.166 46.4354V50.0743Z" fill="#AFB1B8"/>
  <path d="M49.3673 51.6993V44.8105H48.4136L47.1614 48.4571H47.1437L45.8813 44.8105H44.9377V51.6993H45.9218V47.5086H45.9395L46.9033 50.4711H47.3941L48.3655 47.5086H48.3832V51.6993H49.3673Z" fill="#AFB1B8"/>
  <path d="M54.9581 45.2935C54.8065 45.1236 54.6153 44.9942 54.4015 44.9172C54.1712 44.8423 53.9302 44.8062 53.6881 44.8104H52.226V51.6991H53.2075V49.0087H53.7134C54.0197 49.0227 54.3244 48.9579 54.5988 48.8206C54.822 48.6967 55.0081 48.5149 55.1377 48.2942C55.2512 48.111 55.3277 47.907 55.3628 47.6941C55.4014 47.4348 55.4192 47.1729 55.4159 46.9108C55.4255 46.58 55.3932 46.2494 55.3198 45.9267C55.2543 45.6884 55.1299 45.4705 54.9581 45.2935ZM54.4521 47.394C54.4479 47.5187 54.4168 47.641 54.361 47.7525C54.3049 47.8585 54.2162 47.9432 54.1081 47.9941C53.9627 48.0591 53.8041 48.0888 53.6451 48.0806H53.1974V45.7386H53.7033C53.8557 45.7311 54.0075 45.7607 54.146 45.825C54.2475 45.8832 54.3281 45.9723 54.3762 46.0793C54.4299 46.2003 54.4591 46.3308 54.4622 46.4633C54.4622 46.6082 54.4622 46.7608 54.4622 46.921C54.4622 47.0812 54.4723 47.2465 54.4622 47.394H54.4521Z" fill="#AFB1B8"/>
  <path d="M59.6077 44.8105H58.8032L57.2854 51.6993H58.2669L58.5553 50.2193H59.8935L60.1819 51.6993H61.1635L59.6077 44.8105ZM58.702 49.281L59.1852 46.7838H59.2029L59.6836 49.281H58.702Z" fill="#AFB1B8"/>
  <path d="M65.9497 48.9606H65.932L64.4496 44.8105H63.506V51.6993H64.4875V47.5569H64.5078L66.0079 51.6993H66.9312V44.8105H65.9497V48.9606Z" fill="#AFB1B8"/>
  <path d="M71.9476 44.8105L71.1583 47.5493H71.1381L70.3488 44.8105H69.3091L70.6574 48.7877V51.6993H71.639V48.7877L72.9873 44.8105H71.9476Z" fill="#AFB1B8"/>
  <path d="M33 53.6444H33.4731V54.9718H33.7943V53.6444H34.2649V53.3723H33V53.6444Z" fill="#AFB1B8"/>
  <path d="M36.9767 53.3723L36.3569 54.9718H36.6984L36.83 54.6082H37.4675L37.6041 54.9718H37.9532L37.3182 53.3723H36.9767ZM36.9261 54.3386L37.1437 53.7461L37.3612 54.3386H36.9261Z" fill="#AFB1B8"/>
  <path d="M40.9079 54.3821H41.2773V54.5881C41.1694 54.6746 41.0358 54.722 40.8978 54.7229C40.8333 54.7265 40.7689 54.7145 40.7099 54.688C40.6509 54.6614 40.5991 54.6211 40.5588 54.5703C40.474 54.4485 40.4322 54.3017 40.4399 54.1533C40.4399 53.7973 40.5942 53.6193 40.9003 53.6193C40.9809 53.6112 41.0617 53.6325 41.128 53.6791C41.1944 53.7257 41.2419 53.7947 41.2621 53.8735L41.5783 53.8125C41.51 53.4997 41.2849 53.3421 40.9003 53.3421C40.6947 53.3366 40.4947 53.4103 40.3413 53.5481C40.2607 53.6276 40.1983 53.7239 40.1586 53.8302C40.1188 53.9365 40.1026 54.0502 40.1111 54.1634C40.1017 54.3823 40.1749 54.5966 40.316 54.7636C40.3943 54.8444 40.4892 54.9071 40.594 54.9475C40.6988 54.9879 40.8111 55.0049 40.9231 54.9975C41.1734 55.0045 41.4165 54.9133 41.6011 54.7432V54.1126H40.9079V54.3821Z" fill="#AFB1B8"/>
  <path d="M44.9226 53.3723H44.5988V54.9718H45.7194V54.6997H44.9226V53.3723Z" fill="#AFB1B8"/>
  <path d="M48.3175 53.3723H47.9937V54.9718H48.3175V53.3723Z" fill="#AFB1B8"/>
  <path d="M51.6365 54.4403L50.9813 53.3723H50.6676V54.9718H50.9686V53.9267L51.6112 54.9718H51.9325V53.3723H51.6365V54.4403Z" fill="#AFB1B8"/>
  <path d="M54.6368 54.2674H55.4337V53.9953H54.6368V53.6444H55.4944V53.3723H54.313V54.9718H55.5273V54.6997H54.6368V54.2674Z" fill="#AFB1B8"/>
  <path d="M61.9122 54.003H61.2823V53.3723H60.9611V54.9718H61.2823V54.2725H61.9122V54.9718H62.2335V53.3723H61.9122V54.003Z" fill="#AFB1B8"/>
  <path d="M64.9302 54.2674H65.7296V53.9953H64.9302V53.6444H65.7903V53.3723H64.6089V54.9718H65.8206V54.6997H64.9302V54.2674Z" fill="#AFB1B8"/>
  <path d="M69.0233 54.2674C69.3015 54.2241 69.4432 54.0766 69.4432 53.8224C69.4513 53.7543 69.441 53.6854 69.4134 53.6227C69.3858 53.5601 69.3419 53.5061 69.2863 53.4663C69.1415 53.3936 68.9799 53.3611 68.8183 53.3723H68.1404V54.9717H68.4617V54.303H68.5249C68.5934 54.2987 68.6619 54.3109 68.7247 54.3386C68.7717 54.3675 68.8108 54.4077 68.8386 54.4555L69.1877 54.9641H69.5722L69.3774 54.6513C69.2913 54.4969 69.1699 54.3653 69.0233 54.2674ZM68.6994 54.0461H68.4617V53.6444H68.7146C68.8248 53.6354 68.9357 53.6484 69.041 53.6825C69.0644 53.7031 69.0828 53.7288 69.095 53.7576C69.1072 53.7865 69.1127 53.8176 69.1113 53.8489C69.1098 53.8802 69.1014 53.9107 69.0866 53.9382C69.0718 53.9658 69.051 53.9896 69.0258 54.008C68.9202 54.0404 68.8096 54.0533 68.6994 54.0461Z" fill="#AFB1B8"/>
  <path d="M72.1096 54.2674H72.9064V53.9953H72.1096V53.6444H72.9697V53.3723H71.7858V54.9718H73V54.6997H72.1096V54.2674Z" fill="#AFB1B8"/>
</svg>

<svg id="component3" xmlns="http://www.w3.org/2000/svg" width="106" height="60" viewBox="0 0 106 60" fill="none">
  <path d="M36.4062 49.1013C36.4221 49.1017 36.4378 49.1048 36.4523 49.1105C36.4668 49.1162 36.4799 49.1244 36.4907 49.1345L36.7088 49.343C36.5395 49.5117 36.3303 49.6467 36.0954 49.7386C35.8203 49.839 35.5238 49.8874 35.2256 49.8808C34.9454 49.8858 34.667 49.8406 34.4077 49.7481C34.1738 49.6631 33.9637 49.5355 33.7915 49.3738C33.6158 49.2061 33.4804 49.0095 33.3934 48.7957C33.2981 48.5573 33.2511 48.3064 33.2544 48.0541C33.2505 47.8002 33.3014 47.5478 33.4043 47.3102C33.4996 47.095 33.6433 46.8984 33.8269 46.7321C34.0131 46.5689 34.2358 46.4407 34.4813 46.3554C34.7498 46.2649 35.0358 46.2199 35.3238 46.2227C35.5913 46.217 35.8574 46.2581 36.1063 46.3435C36.3222 46.4249 36.5205 46.5379 36.6925 46.6776L36.5098 46.9003C36.4972 46.916 36.4815 46.9296 36.4634 46.9406C36.4419 46.9534 36.4158 46.9593 36.3898 46.9571C36.3615 46.9554 36.3343 46.9473 36.3108 46.9335L36.2126 46.8742L36.0763 46.7984C36.0174 46.7703 35.9564 46.7457 35.8936 46.725C35.8127 46.6998 35.7298 46.68 35.6455 46.6657C35.5385 46.6486 35.4298 46.6407 35.3211 46.642C35.1137 46.6398 34.9079 46.6736 34.7158 46.7415C34.5366 46.8045 34.3749 46.8998 34.2414 47.0211C34.1054 47.1502 34.0007 47.3016 33.9333 47.4665C33.8565 47.6551 33.8186 47.8541 33.8215 48.0541C33.8182 48.2573 33.8561 48.4594 33.9333 48.6511C33.9998 48.8146 34.1026 48.9652 34.2359 49.0942C34.3608 49.2145 34.5156 49.3085 34.6885 49.369C34.8665 49.4331 35.0575 49.4654 35.2502 49.4638C35.3614 49.4653 35.4727 49.4589 35.5828 49.4448C35.7626 49.4258 35.935 49.3715 36.0872 49.2861C36.1635 49.2424 36.2355 49.1932 36.3026 49.1392C36.3306 49.116 36.3675 49.1025 36.4062 49.1013Z" fill="#AFB1B8"/>
  <path d="M42.7043 48.0537C42.7077 48.3051 42.6578 48.5548 42.5571 48.7905C42.4682 49.0042 42.3283 49.1992 42.1464 49.3625C41.9645 49.5259 41.7449 49.6539 41.502 49.7381C40.9682 49.915 40.3781 49.915 39.8443 49.7381C39.6029 49.6526 39.3847 49.5243 39.2036 49.3614C39.0218 49.1951 38.8808 48.9984 38.7891 48.7834C38.5927 48.3062 38.5927 47.7846 38.7891 47.3074C38.8822 47.0922 39.023 46.895 39.2036 46.727C39.3862 46.5693 39.6043 46.4459 39.8443 46.3646C40.3774 46.1845 40.9688 46.1845 41.502 46.3646C41.7442 46.45 41.9633 46.5783 42.1454 46.7412C42.3249 46.9059 42.4648 47.1 42.5571 47.3122C42.6581 47.5494 42.708 47.8008 42.7043 48.0537ZM42.1318 48.0537C42.1361 47.8526 42.101 47.6523 42.0282 47.4614C41.9671 47.2979 41.8677 47.1471 41.7364 47.0184C41.6086 46.8967 41.4512 46.8012 41.2757 46.7389C40.8878 46.6093 40.4584 46.6093 40.0706 46.7389C39.895 46.8012 39.7376 46.8967 39.6098 47.0184C39.4767 47.1463 39.3763 47.2973 39.3154 47.4614C39.1766 47.8471 39.1766 48.2603 39.3154 48.646C39.3769 48.8098 39.4772 48.9607 39.6098 49.089C39.7378 49.2099 39.8952 49.3046 40.0706 49.3661C40.4591 49.4924 40.8871 49.4924 41.2757 49.3661C41.451 49.3046 41.6084 49.2099 41.7364 49.089C41.8672 48.96 41.9664 48.8093 42.0282 48.646C42.1013 48.4551 42.1364 48.2548 42.1318 48.0537Z" fill="#AFB1B8"/>
  <path d="M47.0013 48.6748L47.0585 48.8075C47.0803 48.7601 47.0994 48.7175 47.1212 48.6748C47.142 48.6303 47.1657 48.5868 47.1921 48.5445L48.5853 46.344C48.6126 46.3061 48.6371 46.2824 48.6644 46.2753C48.7015 46.2655 48.7402 46.2615 48.7789 46.2634H49.1906V49.8426H48.7026V47.2109C48.7026 47.1778 48.7026 47.1399 48.7026 47.0996C48.6999 47.0586 48.6999 47.0175 48.7026 46.9764L47.3012 49.2078C47.2834 49.2412 47.2549 49.2695 47.2191 49.2892C47.1833 49.309 47.1418 49.3194 47.0994 49.3191H47.0203C46.9779 49.3196 46.9362 49.3094 46.9003 49.2896C46.8645 49.2698 46.8361 49.2414 46.8186 49.2078L45.3763 46.9622C45.3763 47.0049 45.3763 47.0475 45.3763 47.0901C45.3763 47.1328 45.3763 47.1707 45.3763 47.2038V49.8355H44.9046V46.2634H45.3163C45.355 46.2615 45.3937 46.2655 45.4308 46.2753C45.4646 46.2898 45.4916 46.3141 45.5072 46.344L46.9304 48.5469C46.9583 48.5876 46.9821 48.6304 47.0013 48.6748Z" fill="#AFB1B8"/>
  <path d="M52.2443 48.497V49.8377H51.699V46.2633H52.915C53.1445 46.2595 53.3734 46.2858 53.5939 46.3415C53.7704 46.3849 53.934 46.4609 54.0738 46.5641C54.1949 46.6609 54.2882 46.781 54.3464 46.9147C54.4108 47.0605 54.4422 47.2157 54.4391 47.3719C54.4415 47.5286 54.4072 47.6841 54.3382 47.829C54.2727 47.9661 54.172 48.0885 54.0438 48.1867C53.9039 48.2943 53.7394 48.375 53.5612 48.4236C53.3489 48.4825 53.1269 48.5105 52.9041 48.5065L52.2443 48.497ZM52.2443 48.1133H52.9041C53.0474 48.1149 53.1901 48.0965 53.3267 48.0588C53.4394 48.0258 53.5432 47.9735 53.6321 47.9048C53.714 47.8393 53.7774 47.7582 53.8175 47.6679C53.8621 47.5724 53.8843 47.4702 53.8829 47.3671C53.8893 47.2678 53.8706 47.1684 53.8282 47.0759C53.7858 46.9835 53.7208 46.9002 53.6375 46.8318C53.4292 46.6905 53.1676 46.622 52.9041 46.6399H52.2443V48.1133Z" fill="#AFB1B8"/>
  <path d="M59.5731 49.8425H59.1423C59.0991 49.844 59.0566 49.8322 59.0223 49.8093C58.9914 49.787 58.9671 49.7586 58.9514 49.7264L58.5806 48.8617H56.7184L56.334 49.7264C56.3199 49.758 56.2964 49.7858 56.2658 49.807C56.2312 49.8312 56.1876 49.8438 56.1432 49.8425H55.7124L57.3483 46.2629H57.9154L59.5731 49.8425ZM56.8738 48.5135H58.4116L57.7627 47.0566C57.7131 46.947 57.6721 46.8346 57.64 46.7202L57.5773 46.9073C57.5582 46.9642 57.5364 47.0163 57.5173 47.0589L56.8738 48.5135Z" fill="#AFB1B8"/>
  <path d="M61.9288 46.2796C61.9614 46.2951 61.9894 46.317 62.0105 46.3436L64.3962 49.0418C64.3962 48.9992 64.3962 48.9565 64.3962 48.9163C64.3962 48.876 64.3962 48.8357 64.3962 48.7978V46.263H64.8842V49.8425H64.6116C64.5729 49.8436 64.5345 49.8362 64.4998 49.8212C64.4661 49.8041 64.4365 49.7816 64.4126 49.7549L62.0296 47.059C62.0323 47.1 62.0323 47.1411 62.0296 47.1822C62.0296 47.2224 62.0296 47.258 62.0296 47.2912V49.8425H61.5416V46.263H61.8306C61.8643 46.2622 61.8978 46.2679 61.9288 46.2796Z" fill="#AFB1B8"/>
  <path d="M68.9031 48.4188V49.8402H68.3578V48.4188L66.85 46.2631H67.338C67.3801 46.2609 67.4217 46.2718 67.4553 46.2938C67.485 46.3168 67.5099 46.3441 67.5289 46.3744L68.4723 47.765C68.5104 47.8242 68.5432 47.8787 68.5704 47.9308C68.5977 47.9829 68.6195 48.0327 68.6386 48.0824L68.7095 47.9284C68.7359 47.8721 68.7669 47.8175 68.8022 47.765L69.7319 46.3649C69.7515 46.337 69.7753 46.3115 69.8028 46.2891C69.8351 46.2646 69.8771 46.2518 69.92 46.2536H70.4135L68.9031 48.4188Z" fill="#AFB1B8"/>
  <path d="M46.7314 40.256C46.9686 40.2821 47.2085 40.3034 47.4511 40.3223C51.13 38.8925 54.2421 36.5522 56.3986 33.5941C58.5551 30.6359 59.6602 27.1911 59.5758 23.6903L55.5215 20.1677C56.3459 23.895 55.9603 27.7481 54.4079 31.2958C52.8555 34.8435 50.1975 37.946 46.7314 40.256Z" fill="#AFB1B8"/>
  <path d="M45.2836 40.0922L45.3927 40.1111C49.0966 37.8093 51.9204 34.5949 53.4992 30.8837C55.0779 27.1726 55.3388 23.1352 54.2482 19.2938L48.4736 14.2766C50.8093 18.4006 51.7494 23.016 51.1847 27.586C50.62 32.1561 48.5736 36.4929 45.2836 40.0922Z" fill="#AFB1B8"/>
  <path d="M64.8679 27.8267C63.8868 31.6732 61.504 35.1424 58.0735 37.719C57.0716 38.4756 55.9909 39.1497 54.8453 39.7325C57.6388 39.0191 60.2064 37.7579 62.3502 36.0461C64.4939 34.3342 66.1566 32.2175 67.2099 29.8591L64.8679 27.8267Z" fill="#AFB1B8"/>
  <path d="M63.949 27.2602L60.6146 24.363C60.5508 27.6661 59.47 30.8941 57.4845 33.7115C55.499 36.5289 52.6813 38.8328 49.3242 40.3838H49.3406C50.0887 40.3836 50.8362 40.3448 51.579 40.2678C54.7164 39.1552 57.488 37.385 59.6464 35.1153C61.8049 32.8456 63.283 30.147 63.949 27.2602Z" fill="#AFB1B8"/>
  <path d="M45.7662 12.1609L41.7883 8.69995C38.2322 9.89391 35.1737 11.9928 33.0133 14.722C30.8529 17.4512 29.6911 20.6835 29.68 23.9959V23.9959C29.6933 27.656 31.1112 31.2077 33.7092 34.0888C36.3072 36.9699 39.937 39.016 44.024 39.903C47.6724 36.041 49.8085 31.2687 50.1218 26.2798C50.4351 21.2908 48.9094 16.3449 45.7662 12.1609Z" fill="#AFB1B8"/>
  <path d="M73.14 26.7272C73.1256 22.3847 71.1338 18.2237 67.5996 15.1531C64.0655 12.0824 59.2763 10.3519 54.2783 10.3394C51.9687 10.3373 49.6788 10.7076 47.5248 11.4314L71.8804 32.5925C72.7143 30.722 73.1414 28.7332 73.14 26.7272Z" fill="#AFB1B8"/>
</svg>

<svg id="component4" width="85" height="42" viewBox="0 0 85 42" fill="none" xmlns="http://www.w3.org/2000/svg">
<path d="M13.1462 13.1028H13.1433C10.7453 13.1028 8.80127 14.8304 8.80127 16.9615V16.964C8.80127 19.0951 10.7453 20.8227 13.1433 20.8227H13.1462C15.5442 20.8227 17.4882 19.0951 17.4882 16.964V16.9615C17.4882 14.8304 15.5442 13.1028 13.1462 13.1028Z" fill="#AFB1B8"/>
<path d="M45.195 11.8693C45.1882 8.90929 43.8623 6.07223 41.5074 3.97895C39.1525 1.88568 35.9605 0.706672 32.6298 0.699951V0.699951C29.2981 0.705328 26.1045 1.88374 23.7484 3.97716C21.3923 6.07058 20.0656 8.90841 20.0587 11.8693V28.1921C20.0587 28.1921 45.1922 25.7044 45.195 11.8718V11.8693Z" fill="#AFB1B8"/>
<path d="M1.52588e-05 33.5495C0.00605624 35.6091 0.929165 37.5828 2.56763 39.0394C4.20609 40.496 6.42669 41.317 8.7442 41.3231C11.0612 41.317 13.2814 40.4963 14.9198 39.0403C16.5581 37.5843 17.4816 35.6112 17.4884 33.552V22.1943C17.4884 22.1943 1.52588e-05 23.9266 1.52588e-05 33.5495ZM8.7442 35.5844C8.29132 35.5844 7.84861 35.4651 7.47205 35.2415C7.09549 35.0179 6.802 34.7001 6.6287 34.3282C6.45539 33.9564 6.41004 33.5472 6.49839 33.1525C6.58674 32.7577 6.80483 32.3951 7.12506 32.1105C7.4453 31.8259 7.8533 31.6321 8.29748 31.5536C8.74166 31.4751 9.20206 31.5154 9.62047 31.6694C10.0389 31.8234 10.3965 32.0843 10.6481 32.4189C10.8997 32.7535 11.034 33.147 11.034 33.5495C11.0351 33.8173 10.9767 34.0828 10.8622 34.3306C10.7476 34.5783 10.5791 34.8036 10.3664 34.9933C10.1536 35.1831 9.90083 35.3337 9.62245 35.4364C9.34408 35.5392 9.04562 35.5921 8.7442 35.5921V35.5844Z" fill="#AFB1B8"/>
<path d="M24.7302 31.9412V36.2068H23.8513V31.9412H24.7302ZM26.4294 33.7634V34.449H24.49V33.7634H26.4294ZM26.6345 31.9412V32.6296H24.49V31.9412H26.6345ZM30.6482 33.9744V34.1765C30.6482 34.5007 30.6042 34.7917 30.5163 35.0496C30.4284 35.3074 30.3044 35.5271 30.1443 35.7087C29.9841 35.8884 29.7927 36.0261 29.57 36.1218C29.3493 36.2175 29.1042 36.2654 28.8347 36.2654C28.5671 36.2654 28.322 36.2175 28.0993 36.1218C27.8786 36.0261 27.6872 35.8884 27.5251 35.7087C27.363 35.5271 27.237 35.3074 27.1472 35.0496C27.0593 34.7917 27.0154 34.5007 27.0154 34.1765V33.9744C27.0154 33.6482 27.0593 33.3572 27.1472 33.1013C27.2351 32.8435 27.3591 32.6238 27.5193 32.4421C27.6814 32.2605 27.8728 32.1218 28.0935 32.0261C28.3161 31.9304 28.5612 31.8826 28.8288 31.8826C29.0984 31.8826 29.3435 31.9304 29.5642 32.0261C29.7868 32.1218 29.9782 32.2605 30.1384 32.4421C30.3005 32.6238 30.4255 32.8435 30.5134 33.1013C30.6032 33.3572 30.6482 33.6482 30.6482 33.9744ZM29.7605 34.1765V33.9685C29.7605 33.7419 29.74 33.5427 29.6989 33.3708C29.6579 33.199 29.5974 33.0544 29.5173 32.9373C29.4372 32.8201 29.3396 32.7322 29.2243 32.6736C29.1091 32.613 28.9773 32.5828 28.8288 32.5828C28.6804 32.5828 28.5486 32.613 28.4333 32.6736C28.32 32.7322 28.2234 32.8201 28.1433 32.9373C28.0652 33.0544 28.0056 33.199 27.9646 33.3708C27.9236 33.5427 27.903 33.7419 27.903 33.9685V34.1765C27.903 34.4011 27.9236 34.6003 27.9646 34.7742C28.0056 34.946 28.0661 35.0916 28.1462 35.2107C28.2263 35.3279 28.3239 35.4167 28.4392 35.4773C28.5544 35.5378 28.6862 35.5681 28.8347 35.5681C28.9831 35.5681 29.115 35.5378 29.2302 35.4773C29.3454 35.4167 29.4421 35.3279 29.5202 35.2107C29.5984 35.0916 29.6579 34.946 29.6989 34.7742C29.74 34.6003 29.7605 34.4011 29.7605 34.1765ZM33.5017 35.0906C33.5017 35.0144 33.49 34.946 33.4665 34.8855C33.445 34.823 33.404 34.7664 33.3435 34.7156C33.2829 34.6628 33.198 34.6111 33.0886 34.5603C32.9792 34.5095 32.8376 34.4568 32.6638 34.4021C32.4704 34.3396 32.2868 34.2693 32.113 34.1912C31.9411 34.113 31.7888 34.0222 31.656 33.9187C31.5251 33.8132 31.4216 33.6912 31.3454 33.5525C31.2712 33.4138 31.2341 33.2527 31.2341 33.0691C31.2341 32.8914 31.2732 32.7302 31.3513 32.5857C31.4294 32.4392 31.5388 32.3142 31.6794 32.2107C31.82 32.1052 31.9861 32.0242 32.1775 31.9675C32.3708 31.9109 32.5827 31.8826 32.8132 31.8826C33.1277 31.8826 33.4021 31.9392 33.6364 32.0525C33.8708 32.1658 34.0525 32.321 34.1814 32.5183C34.3122 32.7156 34.3777 32.9412 34.3777 33.1951H33.5046C33.5046 33.0701 33.4782 32.9607 33.4255 32.8669C33.3747 32.7712 33.2966 32.696 33.1911 32.6414C33.0876 32.5867 32.9568 32.5593 32.7986 32.5593C32.6462 32.5593 32.5193 32.5828 32.4177 32.6296C32.3161 32.6746 32.24 32.7361 32.1892 32.8142C32.1384 32.8904 32.113 32.9763 32.113 33.072C32.113 33.1443 32.1306 33.2097 32.1657 33.2683C32.2029 33.3269 32.2575 33.3816 32.3298 33.4324C32.4021 33.4832 32.4909 33.531 32.5964 33.5759C32.7019 33.6208 32.8239 33.6648 32.9626 33.7078C33.195 33.7781 33.3991 33.8572 33.5749 33.9451C33.7527 34.033 33.9011 34.1316 34.0202 34.241C34.1394 34.3503 34.2292 34.4744 34.2898 34.613C34.3503 34.7517 34.3806 34.9089 34.3806 35.0847C34.3806 35.2703 34.3445 35.4363 34.2722 35.5828C34.1999 35.7292 34.0954 35.8533 33.9587 35.9548C33.822 36.0564 33.6589 36.1335 33.4695 36.1863C33.28 36.239 33.0681 36.2654 32.8337 36.2654C32.6228 36.2654 32.4148 36.238 32.2097 36.1833C32.0046 36.1267 31.8181 36.0417 31.6501 35.9285C31.4841 35.8152 31.3513 35.6707 31.2517 35.4949C31.1521 35.3191 31.1023 35.1111 31.1023 34.8708H31.9841C31.9841 35.0037 32.0046 35.116 32.0456 35.2078C32.0866 35.2996 32.1443 35.3738 32.2185 35.4304C32.2946 35.4871 32.3845 35.5281 32.488 35.5535C32.5935 35.5789 32.7087 35.5916 32.8337 35.5916C32.9861 35.5916 33.1111 35.5701 33.2087 35.5271C33.3083 35.4841 33.3816 35.4246 33.4284 35.3484C33.4773 35.2722 33.5017 35.1863 33.5017 35.0906ZM36.8855 31.9412V36.2068H36.0095V31.9412H36.8855ZM38.198 31.9412V32.6296H34.7175V31.9412H38.198ZM41.5612 35.5212V36.2068H39.2907V35.5212H41.5612ZM39.5779 31.9412V36.2068H38.6989V31.9412H39.5779ZM41.2654 33.6785V34.3464H39.2907V33.6785H41.2654ZM41.5583 31.9412V32.6296H39.2907V31.9412H41.5583ZM42.0739 31.9412H43.6648C43.9909 31.9412 44.2712 31.99 44.5056 32.0876C44.7419 32.1853 44.9236 32.3298 45.0505 32.5212C45.1775 32.7126 45.2409 32.948 45.2409 33.2273C45.2409 33.4558 45.2019 33.6521 45.1237 33.8162C45.0476 33.9783 44.9392 34.114 44.7986 34.2234C44.6599 34.3308 44.4968 34.4167 44.3093 34.4812L44.031 34.6277H42.6482L42.6423 33.9421H43.6706C43.8249 33.9421 43.9529 33.9148 44.0544 33.8601C44.156 33.8054 44.2321 33.7292 44.2829 33.6316C44.3357 33.5339 44.362 33.4207 44.362 33.2917C44.362 33.155 44.3366 33.0369 44.2859 32.9373C44.2351 32.8376 44.1579 32.7615 44.0544 32.7087C43.9509 32.656 43.821 32.6296 43.6648 32.6296H42.9529V36.2068H42.0739V31.9412ZM44.4587 36.2068L43.4861 34.3054L44.4148 34.2996L45.3991 36.1658V36.2068H44.4587ZM49.073 34.6863H47.9861V34.0007H49.073C49.2409 34.0007 49.3777 33.9734 49.4831 33.9187C49.5886 33.8621 49.6657 33.7839 49.7146 33.6843C49.7634 33.5847 49.7878 33.4724 49.7878 33.3474C49.7878 33.2205 49.7634 33.1023 49.7146 32.9929C49.6657 32.8835 49.5886 32.7957 49.4831 32.7292C49.3777 32.6628 49.2409 32.6296 49.073 32.6296H48.2907V36.2068H47.4118V31.9412H49.073C49.407 31.9412 49.6931 32.0017 49.9314 32.1228C50.1716 32.2419 50.3552 32.407 50.4821 32.6179C50.6091 32.8289 50.6726 33.0701 50.6726 33.3416C50.6726 33.6169 50.6091 33.8552 50.4821 34.0564C50.3552 34.2576 50.1716 34.4128 49.9314 34.5222C49.6931 34.6316 49.407 34.6863 49.073 34.6863ZM54.1413 35.5212V36.2068H51.8708V35.5212H54.1413ZM52.1579 31.9412V36.2068H51.279V31.9412H52.1579ZM53.8454 33.6785V34.3464H51.8708V33.6785H53.8454ZM54.1384 31.9412V32.6296H51.8708V31.9412H54.1384ZM56.6198 31.9412V36.2068H55.7439V31.9412H56.6198ZM57.9323 31.9412V32.6296H54.4519V31.9412H57.9323ZM61.2956 35.5212V36.2068H59.0251V35.5212H61.2956ZM59.3122 31.9412V36.2068H58.4333V31.9412H59.3122ZM60.9997 33.6785V34.3464H59.0251V33.6785H60.9997ZM61.2927 31.9412V32.6296H59.0251V31.9412H61.2927ZM61.8083 31.9412H63.3991C63.7253 31.9412 64.0056 31.99 64.24 32.0876C64.4763 32.1853 64.6579 32.3298 64.7849 32.5212C64.9118 32.7126 64.9753 32.948 64.9753 33.2273C64.9753 33.4558 64.9362 33.6521 64.8581 33.8162C64.782 33.9783 64.6736 34.114 64.5329 34.2234C64.3943 34.3308 64.2312 34.4167 64.0437 34.4812L63.7654 34.6277H62.3825L62.3767 33.9421H63.405C63.5593 33.9421 63.6872 33.9148 63.7888 33.8601C63.8904 33.8054 63.9665 33.7292 64.0173 33.6316C64.07 33.5339 64.0964 33.4207 64.0964 33.2917C64.0964 33.155 64.071 33.0369 64.0202 32.9373C63.9695 32.8376 63.8923 32.7615 63.7888 32.7087C63.6853 32.656 63.5554 32.6296 63.3991 32.6296H62.6872V36.2068H61.8083V31.9412ZM64.1931 36.2068L63.2204 34.3054L64.1491 34.2996L65.1335 36.1658V36.2068H64.1931ZM67.8728 35.0906C67.8728 35.0144 67.8611 34.946 67.8376 34.8855C67.8161 34.823 67.7751 34.7664 67.7146 34.7156C67.654 34.6628 67.5691 34.6111 67.4597 34.5603C67.3503 34.5095 67.2087 34.4568 67.0349 34.4021C66.8415 34.3396 66.6579 34.2693 66.4841 34.1912C66.3122 34.113 66.1599 34.0222 66.0271 33.9187C65.8962 33.8132 65.7927 33.6912 65.7165 33.5525C65.6423 33.4138 65.6052 33.2527 65.6052 33.0691C65.6052 32.8914 65.6443 32.7302 65.7224 32.5857C65.8005 32.4392 65.9099 32.3142 66.0505 32.2107C66.1911 32.1052 66.3571 32.0242 66.5486 31.9675C66.7419 31.9109 66.9538 31.8826 67.1843 31.8826C67.4987 31.8826 67.7732 31.9392 68.0075 32.0525C68.2419 32.1658 68.4236 32.321 68.5525 32.5183C68.6833 32.7156 68.7487 32.9412 68.7487 33.1951H67.8757C67.8757 33.0701 67.8493 32.9607 67.7966 32.8669C67.7458 32.7712 67.6677 32.696 67.5622 32.6414C67.4587 32.5867 67.3279 32.5593 67.1696 32.5593C67.0173 32.5593 66.8904 32.5828 66.7888 32.6296C66.6872 32.6746 66.6111 32.7361 66.5603 32.8142C66.5095 32.8904 66.4841 32.9763 66.4841 33.072C66.4841 33.1443 66.5017 33.2097 66.5368 33.2683C66.5739 33.3269 66.6286 33.3816 66.7009 33.4324C66.7732 33.4832 66.862 33.531 66.9675 33.5759C67.073 33.6208 67.195 33.6648 67.3337 33.7078C67.5661 33.7781 67.7702 33.8572 67.946 33.9451C68.1237 34.033 68.2722 34.1316 68.3913 34.241C68.5105 34.3503 68.6003 34.4744 68.6609 34.613C68.7214 34.7517 68.7517 34.9089 68.7517 35.0847C68.7517 35.2703 68.7155 35.4363 68.6433 35.5828C68.571 35.7292 68.4665 35.8533 68.3298 35.9548C68.1931 36.0564 68.03 36.1335 67.8405 36.1863C67.6511 36.239 67.4392 36.2654 67.2048 36.2654C66.9939 36.2654 66.7859 36.238 66.5808 36.1833C66.3757 36.1267 66.1892 36.0417 66.0212 35.9285C65.8552 35.8152 65.7224 35.6707 65.6228 35.4949C65.5232 35.3191 65.4734 35.1111 65.4734 34.8708H66.3552C66.3552 35.0037 66.3757 35.116 66.4167 35.2078C66.4577 35.2996 66.5154 35.3738 66.5896 35.4304C66.6657 35.4871 66.7556 35.5281 66.8591 35.5535C66.9646 35.5789 67.0798 35.5916 67.2048 35.5916C67.3571 35.5916 67.4821 35.5701 67.5798 35.5271C67.6794 35.4841 67.7527 35.4246 67.7995 35.3484C67.8484 35.2722 67.8728 35.1863 67.8728 35.0906Z" fill="#AFB1B8"/>
</svg>

<svg id="component5" xmlns="http://www.w3.org/2000/svg" width="106" height="60" viewBox="0 0 106 60" fill="none">
  <path d="M26.7569 44.7351C27.0006 45.0113 27.1304 45.3571 27.1236 45.7121C27.136 45.9436 27.0914 46.1748 26.993 46.3884C26.8947 46.602 26.7451 46.7926 26.5554 46.9461C26.082 47.2735 25.4955 47.4335 24.9037 47.3968H22V41.2053H24.8442C25.4057 41.1711 25.9626 41.3165 26.4199 41.6167C26.6036 41.7575 26.7491 41.9354 26.8448 42.1364C26.9405 42.3375 26.984 42.5561 26.9716 42.7751C26.9883 43.1167 26.8711 43.4524 26.6413 43.7219C26.4206 43.9679 26.1156 44.1384 25.7758 44.2058C26.161 44.2702 26.5087 44.4578 26.7569 44.7351ZM23.3511 43.8005H24.5667C24.843 43.8192 25.1174 43.7462 25.3397 43.5948C25.431 43.5191 25.502 43.4251 25.5473 43.3202C25.5925 43.2153 25.6108 43.1023 25.6007 42.9899C25.6093 42.8779 25.5906 42.7655 25.5461 42.6609C25.5015 42.5563 25.4322 42.4621 25.343 42.385C25.1141 42.2293 24.8311 42.1551 24.5469 42.1763H23.3511V43.8005ZM25.4587 46.1748C25.5562 46.0973 25.6329 46.0002 25.6828 45.8911C25.7326 45.782 25.7543 45.6638 25.746 45.5457C25.7535 45.4263 25.7308 45.3069 25.6799 45.1968C25.6289 45.0866 25.5509 44.9887 25.452 44.9105C25.2142 44.7491 24.9217 44.6698 24.6262 44.6867H23.3511V46.3896H24.6427C24.9334 46.405 25.2212 46.3292 25.4587 46.1748Z" fill="#AFB1B8"/>
  <path d="M32.5709 47.3968L30.9886 44.9771H30.394V47.3968H29.033V41.2054H31.6096C32.2591 41.1638 32.9012 41.3522 33.4034 41.7316C33.7636 42.0677 33.9808 42.5105 34.0159 42.9802C34.0511 43.4499 33.9018 43.9157 33.595 44.2935C33.2771 44.627 32.8428 44.8493 32.3661 44.9227L34.0508 47.3968H32.5709ZM30.394 44.1332H31.5072C32.2802 44.1332 32.6667 43.8207 32.6667 43.1956C32.6746 43.0679 32.6534 42.9402 32.6045 42.8204C32.5556 42.7007 32.48 42.5915 32.3826 42.4999C32.1383 42.3139 31.8238 42.2237 31.5072 42.2489H30.3808L30.394 44.1332Z" fill="#AFB1B8"/>
  <path d="M40.0102 46.1506H37.2981L36.8191 47.3968H35.392L37.8828 41.2749H39.4255L41.9063 47.3968H40.4792L40.0102 46.1506ZM39.6468 45.213L38.6558 42.5997L37.6647 45.213H39.6468Z" fill="#AFB1B8"/>
  <path d="M49.3224 47.3968H47.9713L44.9421 43.1865V47.3968H43.5943V41.2053H44.9421L47.9713 45.4398V41.2053H49.3224V47.3968Z" fill="#AFB1B8"/>
  <path d="M57.0326 45.9148C56.7532 46.3822 56.3276 46.7625 55.8103 47.0067C55.2222 47.2786 54.5695 47.4127 53.9108 47.3968H51.506V41.2054H53.9108C54.5684 41.1896 55.2202 41.3204 55.8103 41.5865C56.3275 41.8251 56.7536 42.2016 57.0326 42.6663C57.3107 43.1698 57.4556 43.7262 57.4556 44.2905C57.4556 44.8548 57.3107 45.4112 57.0326 45.9148ZM55.4866 45.7665C55.8722 45.3552 56.0842 44.8311 56.0842 44.289C56.0842 43.7469 55.8722 43.2228 55.4866 42.8115C55.0205 42.4389 54.4127 42.2498 53.7952 42.2852H52.8571V46.2928H53.7952C54.4127 46.3282 55.0205 46.1391 55.4866 45.7665Z" fill="#AFB1B8"/>
  <path d="M40.8558 6.7666C40.8558 6.7666 58.2945 12.7947 57.9245 21.5178V36.2721C57.9245 36.2721 40.499 30.2409 40.8624 21.5178L40.8558 6.7666Z" fill="#AFB1B8"/>
  <path d="M73.4603 32.8178C76.7538 30.7426 80.5633 29.4571 84.5399 29.0793V24.4607C79.9579 26.0777 76.0709 29.0096 73.4603 32.8178Z" fill="#AFB1B8"/>
  <path d="M71.4816 34.2094C74.1773 29.2395 78.8505 25.4045 84.54 23.493V10.1846C84.54 10.1846 59.705 18.7716 60.2302 31.1938V52.2C60.2302 52.2 61.3369 51.8159 63.0778 51.096C63.0778 50.4246 63.0778 49.747 63.1571 49.0665C63.671 43.2995 66.6654 37.9554 71.4816 34.2094Z" fill="#AFB1B8"/>
  <path d="M69.1197 42.013C69.2502 40.5561 69.5413 39.1151 69.9885 37.7119C66.9896 40.947 65.1734 44.9613 64.7956 49.1905C64.7592 49.5897 64.7394 49.989 64.7295 50.4003C66.14 49.7803 67.7818 49.006 69.5062 48.0956C69.0662 46.0947 68.936 44.0471 69.1197 42.013Z" fill="#AFB1B8"/>
  <path d="M70.1074 42.0886C69.9421 43.9289 70.0454 45.7812 70.4146 47.5965C77.1998 43.8792 84.8241 38.1354 84.5301 31.1938V30.5889C79.6823 31.0855 75.1468 33.0259 71.6204 36.1119C70.7947 38.0243 70.2848 40.0386 70.1074 42.0886Z" fill="#AFB1B8"/>
</svg>

<svg id="component6" xmlns="http://www.w3.org/2000/svg" width="106" height="60" viewBox="0 0 106 60" fill="none">
  <path d="M53.425 27.4081C52.9819 26.8183 52.7699 26.1212 52.8203 25.4195V22.5363C52.8203 21.6525 53.0207 20.9808 53.4216 20.5213C53.8224 20.0618 54.511 19.833 55.4871 19.835C56.4044 19.835 57.0555 20.0305 57.4405 20.4216C57.8605 20.9206 58.0648 21.5307 58.018 22.1462V22.8238H56.3772V22.1374C56.383 21.9128 56.3671 21.6881 56.3296 21.4657C56.306 21.3137 56.2234 21.1731 56.0952 21.0669C55.9267 20.9523 55.7145 20.8968 55.5007 20.9114C55.2759 20.8969 55.0529 20.9555 54.8756 21.0757C54.7327 21.1933 54.6374 21.3476 54.6038 21.5156C54.5567 21.7509 54.5351 21.9896 54.5393 22.2283V25.7275C54.5134 26.065 54.5858 26.4028 54.7499 26.71C54.8315 26.814 54.9448 26.8964 55.0774 26.9482C55.2099 26.9999 55.3564 27.019 55.5007 27.0034C55.7109 27.0183 55.9195 26.9614 56.0816 26.845C56.2153 26.7304 56.3013 26.5809 56.3262 26.4197C56.3645 26.1875 56.3816 25.9531 56.3772 25.7187V25.0089H58.018V25.6571C58.0641 26.2986 57.8648 26.9355 57.4507 27.4697C57.0736 27.8979 56.4315 28.112 55.4871 28.112C54.5427 28.112 53.8292 27.8833 53.425 27.4081Z" fill="#AFB1B8"/>
  <path d="M60.2569 27.4374C59.8424 26.9887 59.6352 26.3346 59.6352 25.4694V22.4366C59.6352 21.5801 59.8424 20.9319 60.2569 20.492C60.6713 20.052 61.3644 19.833 62.3359 19.835C63.3007 19.835 63.9904 20.054 64.4048 20.492C64.8193 20.9319 65.0299 21.5801 65.0299 22.4366V25.4694C65.0299 26.3258 64.8193 26.9828 64.398 27.4345C63.9768 27.8862 63.2906 28.112 62.3359 28.112C61.3813 28.112 60.6747 27.8833 60.2569 27.4374ZM63.1003 26.71C63.2487 26.4289 63.3163 26.121 63.2974 25.8125V22.0993C63.3164 21.7968 63.2499 21.4948 63.1037 21.2194C63.0205 21.1132 62.9043 21.0295 62.7686 20.9776C62.6328 20.9257 62.4829 20.9079 62.3359 20.9261C62.1885 20.9083 62.0383 20.9264 61.9021 20.9782C61.7659 21.03 61.6491 21.1135 61.5648 21.2194C61.4154 21.494 61.3477 21.7964 61.3678 22.0993V25.8301C61.3471 26.1387 61.4148 26.447 61.5648 26.7276C61.6604 26.8223 61.7785 26.8981 61.9109 26.95C62.0433 27.002 62.1871 27.0289 62.3326 27.0289C62.478 27.0289 62.6218 27.002 62.7542 26.95C62.8866 26.8981 63.0047 26.8223 63.1003 26.7276V26.71Z" fill="#AFB1B8"/>
  <path d="M67.0035 19.9236H68.7701L70.0984 25.5192L71.4573 19.9236H73.1763L73.3496 28.0003H72.079L71.9431 22.3871L70.6318 28.0003H69.6126L68.2537 22.3665L68.128 28.0003H66.8439L67.0035 19.9236Z" fill="#AFB1B8"/>
  <path d="M75.3302 19.9236H78.0819C79.6673 19.9236 80.4599 20.688 80.4599 22.217C80.4599 23.6814 79.6254 24.4126 77.9562 24.4106H77.0186V28.0003H75.32L75.3302 19.9236ZM77.6811 23.3754C77.8489 23.3938 78.0193 23.3805 78.1806 23.3364C78.3419 23.2924 78.4902 23.2186 78.6153 23.1203C78.8101 22.8475 78.896 22.5271 78.8599 22.2082C78.8688 21.9618 78.8414 21.7154 78.7783 21.475C78.7541 21.3947 78.7116 21.3194 78.6533 21.2534C78.5949 21.1874 78.522 21.1322 78.4386 21.0908C78.2028 20.9932 77.9422 20.9488 77.6811 20.9618H77.022V23.3754H77.6811Z" fill="#AFB1B8"/>
  <path d="M82.9094 19.9236H84.7337L86.6055 28.0003H85.0225L84.6522 26.138H83.0249L82.6444 28.0003H81.0376L82.9094 19.9236ZM84.4687 25.2025L83.8334 21.8123L83.1982 25.2025H84.4687Z" fill="#AFB1B8"/>
  <path d="M88.1173 19.9236H89.3063L91.5825 24.5309V19.9236H92.9923V28.0003H91.861L89.5713 23.1906V28.0003H88.1139L88.1173 19.9236Z" fill="#AFB1B8"/>
  <path d="M96.2945 24.9207L94.4022 19.9348H95.9955L97.1506 23.1375L98.2343 19.9348H99.7936L97.9251 24.9207V28.0002H96.2945V24.9207Z" fill="#AFB1B8"/>
  <path d="M56.0477 31.5315V31.9538H54.6617V35.2358H54.0807V31.9538H52.6879V31.5315H56.0477Z" fill="#AFB1B8"/>
  <path d="M60.3927 35.2361H59.9442C59.8987 35.2385 59.8538 35.2259 59.8185 35.2009C59.7846 35.1794 59.7587 35.1498 59.7438 35.1158L59.3429 34.236H57.4201L57.0192 35.1158C57.0078 35.1526 56.9869 35.1867 56.958 35.2155C56.9225 35.2401 56.8778 35.2526 56.8324 35.2507H56.3839L58.0825 31.5466H58.6737L60.3927 35.2361ZM57.5797 33.8606H59.1833L58.5038 32.3531C58.4537 32.2391 58.4117 32.1226 58.3781 32.0041C58.3543 32.0745 58.3339 32.142 58.3136 32.2006L58.2524 32.3561L57.5797 33.8606Z" fill="#AFB1B8"/>
  <path d="M63.3211 34.8724C63.4275 34.8772 63.5341 34.8772 63.6404 34.8724C63.7323 34.8642 63.8232 34.8495 63.9122 34.8284C63.9954 34.8107 64.0772 34.7882 64.1568 34.7609C64.2316 34.7345 64.3063 34.7022 64.3844 34.67V33.8369H63.705C63.6882 33.8378 63.6714 33.8356 63.6556 33.8305C63.6398 33.8255 63.6254 33.8177 63.6133 33.8076C63.6021 33.7993 63.5933 33.7889 63.5874 33.7772C63.5815 33.7655 63.5787 33.7529 63.5793 33.7401V33.4556H64.8974V34.8753C64.7898 34.9417 64.6762 35.0006 64.5577 35.0513C64.4366 35.1029 64.3104 35.1451 64.1806 35.1774C64.0417 35.2127 63.8996 35.2382 63.7559 35.2537C63.5912 35.2695 63.4257 35.2773 63.26 35.2771C62.967 35.2793 62.6763 35.2325 62.4038 35.1393C62.1495 35.051 61.9184 34.9193 61.7244 34.7521C61.5353 34.5832 61.3864 34.3839 61.2862 34.1655C61.1791 33.9199 61.1261 33.6593 61.1299 33.397C61.1263 33.133 61.1781 32.8706 61.2828 32.6226C61.3805 32.4031 61.5297 32.2033 61.721 32.036C61.9149 31.8693 62.1461 31.7386 62.4005 31.6517C62.6914 31.5572 63.0001 31.5105 63.3109 31.5138C63.4691 31.5137 63.627 31.5245 63.7831 31.5461C63.9212 31.5655 64.0567 31.597 64.1874 31.64C64.3062 31.6785 64.4201 31.7277 64.5271 31.7866C64.6312 31.8445 64.7301 31.9092 64.8227 31.9802L64.6596 32.209C64.6468 32.2299 64.6278 32.2475 64.6045 32.2598C64.5812 32.2722 64.5545 32.279 64.5271 32.2794C64.4895 32.2784 64.453 32.2682 64.4218 32.2501C64.3708 32.2266 64.3165 32.1973 64.2553 32.1621C64.1831 32.123 64.1069 32.0896 64.0277 32.0624C63.9265 32.0273 63.8219 31.9998 63.7152 31.9802C63.5729 31.9576 63.4284 31.9468 63.2837 31.948C63.0596 31.9458 62.8371 31.9807 62.6281 32.0506C62.439 32.1161 62.2686 32.2162 62.1287 32.3439C61.9879 32.4771 61.8803 32.6339 61.8127 32.8045C61.661 33.2056 61.661 33.6381 61.8127 34.0393C61.8871 34.2135 62.0028 34.3724 62.1525 34.5057C62.2918 34.6328 62.4609 34.7328 62.6485 34.799C62.8645 34.8631 63.0934 34.888 63.3211 34.8724Z" fill="#AFB1B8"/>
  <path d="M68.7362 34.8134H70.5911V35.2358H68.1689V31.5315H68.7498L68.7362 34.8134Z" fill="#AFB1B8"/>
  <path d="M72.5208 35.2358H71.9398V31.5315H72.5208V35.2358Z" fill="#AFB1B8"/>
  <path d="M74.6814 31.5491C74.7159 31.5661 74.746 31.5891 74.7697 31.6166L77.253 34.4089C77.2497 34.3649 77.2497 34.3209 77.253 34.2769C77.253 34.2358 77.253 34.1948 77.253 34.1566V31.5168H77.7592V35.236H77.4671C77.4238 35.2391 77.3804 35.232 77.3414 35.2155C77.3061 35.197 77.275 35.1732 77.2496 35.1451L74.7697 32.3557C74.7697 32.3997 74.7697 32.4408 74.7697 32.4818C74.7697 32.5229 74.7697 32.561 74.7697 32.5962V35.236H74.2839V31.5315H74.5863C74.6191 31.5316 74.6515 31.5376 74.6814 31.5491Z" fill="#AFB1B8"/>
  <path d="M82.0364 31.5315V31.9392H79.9777V33.1622H81.6457V33.5553H79.9777V34.8194H82.0364V35.2271H79.3798V31.5315H82.0364Z" fill="#AFB1B8"/>
  <path d="M21.1617 8.65538L46.9568 14.9787V37.1367L21.1617 30.8163V8.65538ZM19.5073 6.7666V31.8927L48.6079 39.0284V13.9053L19.5073 6.7666Z" fill="#AFB1B8"/>
  <path d="M35.1039 50.6921L6 43.5504V18.427L35.1039 25.5657V50.6921Z" fill="#AFB1B8"/>
  <path d="M19.9897 8.37086L45.4484 14.6149L34.6215 23.9648L9.1594 17.7178L19.9897 8.37086ZM19.5073 6.7666L6 18.4276L35.1039 25.5661L48.6078 13.9051L19.5073 6.7666Z" fill="#AFB1B8"/>
  <path d="M36.7414 49.2786L48.6078 39.0314L36.7414 36.1191V49.2786Z" fill="#AFB1B8"/>
</svg>

<svg id="diagram-computer" xmlns="http://www.w3.org/2000/svg" width="70" height="70" viewBox="0 0 70 70" fill="none">
<g clip-path="url(#clip0_11_3271)">
<path d="M32.6496 32.7351H34.9817V43.2296H32.6496V32.7351Z" fill="#2196F3"/>
<path d="M41.978 37.3993H44.3101V43.2296H41.978V37.3993Z" fill="#2196F3"/>
<path d="M23.3211 40.8975H25.6532V43.2296H23.3211V40.8975Z" fill="#2196F3"/>
<path d="M16.3248 39.7314H18.6569V43.2295H16.3248V39.7314Z" fill="#2196F3"/>
<path d="M3.49817 61.8865H59.4689C61.4007 61.8865 62.967 60.3202 62.967 58.3883V53.7241C62.967 51.7923 61.4007 50.2259 59.4689 50.2259H58.3028V21.1469L64.9262 14.8725C66.4635 15.6303 68.3242 15.1702 69.3302 13.7816C70.3369 12.3935 70.1957 10.4821 68.9966 9.25684C67.7975 8.03157 65.8901 7.8488 64.4798 8.82412C63.0701 9.80001 62.569 11.6499 63.2933 13.2037L58.3028 17.9345V15.2443C58.3028 13.3124 56.7365 11.7461 54.8046 11.7461H8.16239C6.23054 11.7461 4.66422 13.3124 4.66422 15.2443V50.2259H3.49817C1.56632 50.2259 0 51.7923 0 53.7241V58.3883C0 60.3202 1.56632 61.8865 3.49817 61.8865ZM66.4652 10.58C67.1091 10.58 67.6312 11.1021 67.6312 11.7461C67.6312 12.39 67.1091 12.9121 66.4652 12.9121C65.8212 12.9121 65.2991 12.39 65.2991 11.7461C65.2991 11.1021 65.8212 10.58 66.4652 10.58ZM6.99634 15.2443C6.99634 14.6003 7.51844 14.0782 8.16239 14.0782H54.8046C55.4486 14.0782 55.9707 14.6003 55.9707 15.2443V20.1414L53.6386 22.3573V17.5764C53.6386 16.9324 53.1165 16.4103 52.4725 16.4103H10.4945C9.85055 16.4103 9.32845 16.9324 9.32845 17.5764V46.7278C9.32845 47.3717 9.85055 47.8938 10.4945 47.8938H52.4725C53.1165 47.8938 53.6386 47.3717 53.6386 46.7278V25.5651L55.9707 23.3554V50.2259H6.99634V15.2443ZM17.4908 30.403C15.9131 30.3984 14.5279 31.4495 14.1083 32.9703C13.6886 34.491 14.3383 36.104 15.6951 36.9091C17.0513 37.7142 18.7793 37.5121 19.9129 36.4149L23.9662 38.4487C24.4371 38.6844 25.0081 38.5739 25.3583 38.1805L33.9745 28.4871L42.4443 34.8338C42.8987 35.1743 43.5329 35.1378 43.9452 34.7478L51.3065 27.7748V45.5617H11.6606V18.7424H51.3065V24.5619L43.0564 32.3747L34.5154 25.9716C34.0303 25.6084 33.3476 25.6767 32.9445 26.1294L24.2099 35.9571L20.9446 34.3242C20.9685 34.1841 20.9833 34.0429 20.989 33.9012C20.989 31.9693 19.4227 30.403 17.4908 30.403ZM18.6569 33.9012C18.6569 34.5451 18.1348 35.0672 17.4908 35.0672C16.8469 35.0672 16.3248 34.5451 16.3248 33.9012C16.3248 33.2572 16.8469 32.7351 17.4908 32.7351C18.1348 32.7351 18.6569 33.2572 18.6569 33.9012ZM25.6532 52.5581H37.3138V53.7241C37.3138 54.3681 36.7917 54.8902 36.1477 54.8902H26.8193C26.1753 54.8902 25.6532 54.3681 25.6532 53.7241V52.5581ZM2.33211 53.7241C2.33211 53.0802 2.85422 52.5581 3.49817 52.5581H23.3211V53.7241C23.3211 55.656 24.8874 57.2223 26.8193 57.2223H36.1477C38.0796 57.2223 39.6459 55.656 39.6459 53.7241V52.5581H59.4689C60.1128 52.5581 60.6349 53.0802 60.6349 53.7241V58.3883C60.6349 59.0323 60.1128 59.5544 59.4689 59.5544H3.49817C2.85422 59.5544 2.33211 59.0323 2.33211 58.3883V53.7241Z" fill="#212121"/>
</g>
<defs>
<clipPath id="clip0_11_3271">
<rect width="70" height="70" fill="white"/>
</clipPath>
</defs>
</svg>

<svg id="logo-envelope" xmlns="http://www.w3.org/2000/svg" width="16" height="12" viewBox="0 0 16 12" fill="inherit">
<path d="M14.5 0H1.50001C0.672854 0 0 0.672853 0 1.50001V10.5C0 11.3271 0.672854 12 1.50001 12H14.5C15.3271 12 16 11.3271 16 10.5V1.50001C16 0.672853 15.3271 0 14.5 0ZM14.5 0.999994C14.5679 0.999994 14.6325 1.01409 14.6916 1.0387L8 6.83838L1.30833 1.0387C1.36742 1.01412 1.43204 0.999994 1.49998 0.999994H14.5ZM14.5 11H1.50001C1.22414 11 0.999996 10.7759 0.999996 10.5V2.09521L7.67236 7.87792C7.76661 7.95944 7.8833 7.99999 8 7.99999C8.1167 7.99999 8.23339 7.95948 8.32764 7.87792L15 2.09521V10.5C15 10.7759 14.7759 11 14.5 11Z" fill="inherit"/>
</svg> 

<svg id="logo-facebook" xmlns="http://www.w3.org/2000/svg" width="20" height="20" viewBox="0 0 20 20" fill="inherit">
  <g clip-path="url(#clip0_12_7228)">
    <path d="M13.3308 3.32083H15.1567V0.140833C14.8417 0.0975 13.7583 0 12.4967 0C9.86416 0 8.06082 1.65583 8.06082 4.69917V7.5H5.15582V11.055H8.06082V20H11.6225V11.0558H14.41L14.8525 7.50083H11.6217V5.05167C11.6225 4.02417 11.8992 3.32083 13.3308 3.32083Z" fill="inherit"/>
  </g>
  <defs>
    <clipPath id="clip0_12_7228">
      <rect width="20" height="20" fill="white"/>
    </clipPath>
  </defs>
</svg>

<svg id="logo-instagram" xmlns="http://www.w3.org/2000/svg" width="20" height="20" viewBox="0 0 20 20" fill="inherit">
  <g clip-path="url(#clip0_12_7238)">
    <path d="M19.9804 5.88005C19.9336 4.81738 19.7617 4.0868 19.5156 3.45374C19.2616 2.78176 18.8709 2.18014 18.359 1.68002C17.8589 1.1721 17.2533 0.777435 16.5891 0.527447C15.9524 0.281274 15.2256 0.109427 14.163 0.0625732C13.0924 0.0117516 12.7525 0 10.0371 0C7.32173 0 6.98185 0.0117516 5.91521 0.0586052C4.85253 0.105459 4.12195 0.277459 3.48904 0.523479C2.81692 0.777435 2.2153 1.16814 1.71517 1.68002C1.20726 2.18014 0.812743 2.78573 0.562603 3.44992C0.31643 4.0868 0.144583 4.81341 0.0977294 5.87609C0.0469078 6.9467 0.0351562 7.28658 0.0351562 10.002C0.0351562 12.7173 0.0469078 13.0572 0.0937614 14.1239C0.140615 15.1865 0.312615 15.9171 0.558787 16.5502C0.812743 17.2221 1.20726 17.8238 1.71517 18.3239C2.2153 18.8318 2.82088 19.2265 3.48508 19.4765C4.12195 19.7226 4.84856 19.8945 5.91139 19.9413C6.97788 19.9883 7.31791 19.9999 10.0333 19.9999C12.7487 19.9999 13.0885 19.9883 14.1552 19.9413C15.2179 19.8945 15.9484 19.7226 16.5813 19.4765C17.9254 18.9568 18.9881 17.8941 19.5078 16.5502C19.7538 15.9133 19.9258 15.1865 19.9727 14.1239C20.0195 13.0572 20.0313 12.7173 20.0313 10.002C20.0313 7.28658 20.0273 6.9467 19.9804 5.88005ZM18.1794 14.0457C18.1364 15.0225 17.9723 15.5499 17.8356 15.9015C17.4995 16.7728 16.808 17.4643 15.9367 17.8004C15.5851 17.9372 15.0538 18.1012 14.0809 18.1441C13.026 18.1911 12.7096 18.2027 10.0411 18.2027C7.37255 18.2027 7.05221 18.1911 6.00113 18.1441C5.02438 18.1012 4.49693 17.9372 4.1453 17.8004C3.71171 17.6402 3.31704 17.3862 2.9967 17.0541C2.6646 16.7298 2.41065 16.3391 2.2504 15.9055C2.11365 15.5539 1.94959 15.0225 1.90671 14.0497C1.8597 12.9948 1.8481 12.6783 1.8481 10.0097C1.8481 7.34122 1.8597 7.02087 1.90671 5.96995C1.94959 4.99319 2.11365 4.46575 2.2504 4.11412C2.41065 3.68038 2.6646 3.28586 3.00067 2.96536C3.32483 2.63327 3.71553 2.37931 4.14927 2.21921C4.5009 2.08247 5.03231 1.9184 6.0051 1.87537C7.05999 1.82851 7.37652 1.81676 10.0449 1.81676C12.7174 1.81676 13.0337 1.82851 14.0848 1.87537C15.0616 1.9184 15.589 2.08247 15.9407 2.21921C16.3742 2.37931 16.7689 2.63327 17.0893 2.96536C17.4213 3.28967 17.6753 3.68038 17.8356 4.11412C17.9723 4.46575 18.1364 4.99701 18.1794 5.96995C18.2263 7.02484 18.238 7.34122 18.238 10.0097C18.238 12.6783 18.2263 12.9908 18.1794 14.0457Z" fill="inherit"/>
    <path d="M10.0371 4.86414C7.20068 4.86414 4.89935 7.16531 4.89935 10.0019C4.89935 12.8384 7.20068 15.1396 10.0371 15.1396C12.8736 15.1396 15.1748 12.8384 15.1748 10.0019C15.1748 7.16531 12.8736 4.86414 10.0371 4.86414ZM10.0371 13.3346C8.19696 13.3346 6.70436 11.8421 6.70436 10.0019C6.70436 8.16159 8.19696 6.66914 10.0371 6.66914C11.8773 6.66914 13.3698 8.16159 13.3698 10.0019C13.3698 11.8421 11.8773 13.3346 10.0371 13.3346Z" fill="inherit"/>
    <path d="M16.5775 4.6611C16.5775 5.32346 16.0405 5.86052 15.378 5.86052C14.7156 5.86052 14.1785 5.32346 14.1785 4.6611C14.1785 3.99858 14.7156 3.46167 15.378 3.46167C16.0405 3.46167 16.5775 3.99858 16.5775 4.6611Z" fill="inherit"/>
  </g>
  <defs>
    <clipPath id="clip0_12_7238">
      <rect width="20" height="20" fill="white"/>
    </clipPath>
  </defs>
</svg>

<svg id="logo-linkedin" xmlns="http://www.w3.org/2000/svg" width="20" height="20" viewBox="0 0 20 20" fill="inherit">
  <g clip-path="url(#clip0_12_7222)">
    <path d="M19.995 20.0001V19.9993H20V12.6643C20 9.07593 19.2275 6.31177 15.0325 6.31177C13.0158 6.31177 11.6625 7.41843 11.11 8.4676H11.0517V6.64677H7.07416V19.9993H11.2158V13.3876C11.2158 11.6468 11.5458 9.96343 13.7017 9.96343C15.8258 9.96343 15.8575 11.9501 15.8575 13.4993V20.0001H19.995Z" fill="inherit"/>
    <path d="M0.329987 6.64746H4.47665V20H0.329987V6.64746Z" fill="inherit"/>
    <path d="M2.40167 0C1.07583 0 0 1.07583 0 2.40167C0 3.7275 1.07583 4.82583 2.40167 4.82583C3.7275 4.82583 4.80333 3.7275 4.80333 2.40167C4.8025 1.07583 3.72667 0 2.40167 0V0Z" fill="inherit"/>
  </g>
  <defs>
    <clipPath id="clip0_12_7222">
      <rect width="20" height="20" fill="white"/>
    </clipPath>
  </defs>
</svg>

<svg id="logo-twitter" xmlns="http://www.w3.org/2000/svg" width="20" height="20" viewBox="0 0 20 20" fill="inherit">
  <g clip-path="url(#clip0_12_7232)">
    <path d="M20 3.79875C19.2563 4.125 18.4637 4.34125 17.6375 4.44625C18.4875 3.93875 19.1363 3.14125 19.4412 2.18C18.6488 2.6525 17.7738 2.98625 16.8412 3.1725C16.0887 2.37125 15.0162 1.875 13.8462 1.875C11.5763 1.875 9.74875 3.7175 9.74875 5.97625C9.74875 6.30125 9.77625 6.61375 9.84375 6.91125C6.435 6.745 3.41875 5.11125 1.3925 2.6225C1.03875 3.23625 0.83125 3.93875 0.83125 4.695C0.83125 6.115 1.5625 7.37375 2.6525 8.1025C1.99375 8.09 1.3475 7.89875 0.8 7.5975C0.8 7.61 0.8 7.62625 0.8 7.6425C0.8 9.635 2.22125 11.29 4.085 11.6712C3.75125 11.7625 3.3875 11.8062 3.01 11.8062C2.7475 11.8062 2.4825 11.7913 2.23375 11.7362C2.765 13.36 4.2725 14.5538 6.065 14.5925C4.67 15.6838 2.89875 16.3412 0.98125 16.3412C0.645 16.3412 0.3225 16.3263 0 16.285C1.81625 17.4563 3.96875 18.125 6.29 18.125C13.835 18.125 17.96 11.875 17.96 6.4575C17.96 6.27625 17.9538 6.10125 17.945 5.9275C18.7588 5.35 19.4425 4.62875 20 3.79875Z" fill="inherit"/>
  </g>
  <defs>
    <clipPath id="clip0_12_7232">
      <rect width="20" height="20" fill="white"/>
    </clipPath>
  </defs>
</svg>

<svg id="logo-smartphone" xmlns="http://www.w3.org/2000/svg" width="10" height="16" viewBox="0 0 10 16" fill="inherit">
<path d="M8.5 0H1.5C0.672848 0 0 0.672848 0 1.5V14.5C0 15.3272 0.672848 16 1.5 16H8.5C9.32715 16 10 15.3272 10 14.5V1.5C10 0.672848 9.32715 0 8.5 0ZM1.5 1H8.5C8.77588 1 9 1.22412 9 1.5V12H1V1.5C1 1.22412 1.22412 1 1.5 1ZM8.5 15H1.5C1.22412 15 1 14.7759 1 14.5V13H9V14.5C9 14.7759 8.77588 15 8.5 15Z" fill="inherit"/>
<path d="M2.35355 13.7389C2.54882 13.9213 2.54882 14.2169 2.35355 14.3992C2.15828 14.5816 1.84172 14.5816 1.64645 14.3992C1.45118 14.2169 1.45118 13.9213 1.64645 13.7389C1.84172 13.5566 2.15828 13.5566 2.35355 13.7389Z" fill="inherit"/>
</svg>